%TF.GenerationSoftware,KiCad,Pcbnew,(7.0.0)*%
%TF.CreationDate,2023-03-16T10:54:00+00:00*%
%TF.ProjectId,kit-soldadura-pcb,6b69742d-736f-46c6-9461-647572612d70,rev?*%
%TF.SameCoordinates,Original*%
%TF.FileFunction,Legend,Top*%
%TF.FilePolarity,Positive*%
%FSLAX46Y46*%
G04 Gerber Fmt 4.6, Leading zero omitted, Abs format (unit mm)*
G04 Created by KiCad (PCBNEW (7.0.0)) date 2023-03-16 10:54:00*
%MOMM*%
%LPD*%
G01*
G04 APERTURE LIST*
%ADD10C,0.150000*%
%ADD11C,0.120000*%
%ADD12C,0.203200*%
G04 APERTURE END LIST*
D10*
X144098571Y-78469642D02*
X145241429Y-78469642D01*
X144670000Y-79041071D02*
X144670000Y-77898214D01*
X153208571Y-78469642D02*
X154351429Y-78469642D01*
%TO.C,D1*%
X148491905Y-84153517D02*
X148491905Y-83153517D01*
X148491905Y-83153517D02*
X148730000Y-83153517D01*
X148730000Y-83153517D02*
X148872857Y-83201137D01*
X148872857Y-83201137D02*
X148968095Y-83296375D01*
X148968095Y-83296375D02*
X149015714Y-83391613D01*
X149015714Y-83391613D02*
X149063333Y-83582089D01*
X149063333Y-83582089D02*
X149063333Y-83724946D01*
X149063333Y-83724946D02*
X149015714Y-83915422D01*
X149015714Y-83915422D02*
X148968095Y-84010660D01*
X148968095Y-84010660D02*
X148872857Y-84105898D01*
X148872857Y-84105898D02*
X148730000Y-84153517D01*
X148730000Y-84153517D02*
X148491905Y-84153517D01*
X150015714Y-84153517D02*
X149444286Y-84153517D01*
X149730000Y-84153517D02*
X149730000Y-83153517D01*
X149730000Y-83153517D02*
X149634762Y-83296375D01*
X149634762Y-83296375D02*
X149539524Y-83391613D01*
X149539524Y-83391613D02*
X149444286Y-83439232D01*
%TO.C,D2*%
X140958700Y-92528743D02*
X140958700Y-91528743D01*
X140958700Y-91528743D02*
X141196795Y-91528743D01*
X141196795Y-91528743D02*
X141339652Y-91576363D01*
X141339652Y-91576363D02*
X141434890Y-91671601D01*
X141434890Y-91671601D02*
X141482509Y-91766839D01*
X141482509Y-91766839D02*
X141530128Y-91957315D01*
X141530128Y-91957315D02*
X141530128Y-92100172D01*
X141530128Y-92100172D02*
X141482509Y-92290648D01*
X141482509Y-92290648D02*
X141434890Y-92385886D01*
X141434890Y-92385886D02*
X141339652Y-92481124D01*
X141339652Y-92481124D02*
X141196795Y-92528743D01*
X141196795Y-92528743D02*
X140958700Y-92528743D01*
X141911081Y-91623982D02*
X141958700Y-91576363D01*
X141958700Y-91576363D02*
X142053938Y-91528743D01*
X142053938Y-91528743D02*
X142292033Y-91528743D01*
X142292033Y-91528743D02*
X142387271Y-91576363D01*
X142387271Y-91576363D02*
X142434890Y-91623982D01*
X142434890Y-91623982D02*
X142482509Y-91719220D01*
X142482509Y-91719220D02*
X142482509Y-91814458D01*
X142482509Y-91814458D02*
X142434890Y-91957315D01*
X142434890Y-91957315D02*
X141863462Y-92528743D01*
X141863462Y-92528743D02*
X142482509Y-92528743D01*
%TO.C,D3*%
X156152172Y-92316741D02*
X156152172Y-91316741D01*
X156152172Y-91316741D02*
X156390267Y-91316741D01*
X156390267Y-91316741D02*
X156533124Y-91364361D01*
X156533124Y-91364361D02*
X156628362Y-91459599D01*
X156628362Y-91459599D02*
X156675981Y-91554837D01*
X156675981Y-91554837D02*
X156723600Y-91745313D01*
X156723600Y-91745313D02*
X156723600Y-91888170D01*
X156723600Y-91888170D02*
X156675981Y-92078646D01*
X156675981Y-92078646D02*
X156628362Y-92173884D01*
X156628362Y-92173884D02*
X156533124Y-92269122D01*
X156533124Y-92269122D02*
X156390267Y-92316741D01*
X156390267Y-92316741D02*
X156152172Y-92316741D01*
X157056934Y-91316741D02*
X157675981Y-91316741D01*
X157675981Y-91316741D02*
X157342648Y-91697694D01*
X157342648Y-91697694D02*
X157485505Y-91697694D01*
X157485505Y-91697694D02*
X157580743Y-91745313D01*
X157580743Y-91745313D02*
X157628362Y-91792932D01*
X157628362Y-91792932D02*
X157675981Y-91888170D01*
X157675981Y-91888170D02*
X157675981Y-92126265D01*
X157675981Y-92126265D02*
X157628362Y-92221503D01*
X157628362Y-92221503D02*
X157580743Y-92269122D01*
X157580743Y-92269122D02*
X157485505Y-92316741D01*
X157485505Y-92316741D02*
X157199791Y-92316741D01*
X157199791Y-92316741D02*
X157104553Y-92269122D01*
X157104553Y-92269122D02*
X157056934Y-92221503D01*
%TO.C,C2*%
X157823333Y-105282142D02*
X157775714Y-105329761D01*
X157775714Y-105329761D02*
X157632857Y-105377380D01*
X157632857Y-105377380D02*
X157537619Y-105377380D01*
X157537619Y-105377380D02*
X157394762Y-105329761D01*
X157394762Y-105329761D02*
X157299524Y-105234523D01*
X157299524Y-105234523D02*
X157251905Y-105139285D01*
X157251905Y-105139285D02*
X157204286Y-104948809D01*
X157204286Y-104948809D02*
X157204286Y-104805952D01*
X157204286Y-104805952D02*
X157251905Y-104615476D01*
X157251905Y-104615476D02*
X157299524Y-104520238D01*
X157299524Y-104520238D02*
X157394762Y-104425000D01*
X157394762Y-104425000D02*
X157537619Y-104377380D01*
X157537619Y-104377380D02*
X157632857Y-104377380D01*
X157632857Y-104377380D02*
X157775714Y-104425000D01*
X157775714Y-104425000D02*
X157823333Y-104472619D01*
X158204286Y-104472619D02*
X158251905Y-104425000D01*
X158251905Y-104425000D02*
X158347143Y-104377380D01*
X158347143Y-104377380D02*
X158585238Y-104377380D01*
X158585238Y-104377380D02*
X158680476Y-104425000D01*
X158680476Y-104425000D02*
X158728095Y-104472619D01*
X158728095Y-104472619D02*
X158775714Y-104567857D01*
X158775714Y-104567857D02*
X158775714Y-104663095D01*
X158775714Y-104663095D02*
X158728095Y-104805952D01*
X158728095Y-104805952D02*
X158156667Y-105377380D01*
X158156667Y-105377380D02*
X158775714Y-105377380D01*
X161064847Y-98765596D02*
X159541038Y-98765596D01*
X160302942Y-98003692D02*
X160302942Y-99527501D01*
%TO.C,C1*%
X140173333Y-105362142D02*
X140125714Y-105409761D01*
X140125714Y-105409761D02*
X139982857Y-105457380D01*
X139982857Y-105457380D02*
X139887619Y-105457380D01*
X139887619Y-105457380D02*
X139744762Y-105409761D01*
X139744762Y-105409761D02*
X139649524Y-105314523D01*
X139649524Y-105314523D02*
X139601905Y-105219285D01*
X139601905Y-105219285D02*
X139554286Y-105028809D01*
X139554286Y-105028809D02*
X139554286Y-104885952D01*
X139554286Y-104885952D02*
X139601905Y-104695476D01*
X139601905Y-104695476D02*
X139649524Y-104600238D01*
X139649524Y-104600238D02*
X139744762Y-104505000D01*
X139744762Y-104505000D02*
X139887619Y-104457380D01*
X139887619Y-104457380D02*
X139982857Y-104457380D01*
X139982857Y-104457380D02*
X140125714Y-104505000D01*
X140125714Y-104505000D02*
X140173333Y-104552619D01*
X141125714Y-105457380D02*
X140554286Y-105457380D01*
X140840000Y-105457380D02*
X140840000Y-104457380D01*
X140840000Y-104457380D02*
X140744762Y-104600238D01*
X140744762Y-104600238D02*
X140649524Y-104695476D01*
X140649524Y-104695476D02*
X140554286Y-104743095D01*
X137397378Y-98605513D02*
X138921188Y-98605513D01*
X138159283Y-99367417D02*
X138159283Y-97843608D01*
%TO.C,R1*%
X139247380Y-85442803D02*
X138771190Y-85776136D01*
X139247380Y-86014231D02*
X138247380Y-86014231D01*
X138247380Y-86014231D02*
X138247380Y-85633279D01*
X138247380Y-85633279D02*
X138295000Y-85538041D01*
X138295000Y-85538041D02*
X138342619Y-85490422D01*
X138342619Y-85490422D02*
X138437857Y-85442803D01*
X138437857Y-85442803D02*
X138580714Y-85442803D01*
X138580714Y-85442803D02*
X138675952Y-85490422D01*
X138675952Y-85490422D02*
X138723571Y-85538041D01*
X138723571Y-85538041D02*
X138771190Y-85633279D01*
X138771190Y-85633279D02*
X138771190Y-86014231D01*
X139247380Y-84490422D02*
X139247380Y-85061850D01*
X139247380Y-84776136D02*
X138247380Y-84776136D01*
X138247380Y-84776136D02*
X138390238Y-84871374D01*
X138390238Y-84871374D02*
X138485476Y-84966612D01*
X138485476Y-84966612D02*
X138533095Y-85061850D01*
%TO.C,R3*%
X152137380Y-93539418D02*
X151661190Y-93872751D01*
X152137380Y-94110846D02*
X151137380Y-94110846D01*
X151137380Y-94110846D02*
X151137380Y-93729894D01*
X151137380Y-93729894D02*
X151185000Y-93634656D01*
X151185000Y-93634656D02*
X151232619Y-93587037D01*
X151232619Y-93587037D02*
X151327857Y-93539418D01*
X151327857Y-93539418D02*
X151470714Y-93539418D01*
X151470714Y-93539418D02*
X151565952Y-93587037D01*
X151565952Y-93587037D02*
X151613571Y-93634656D01*
X151613571Y-93634656D02*
X151661190Y-93729894D01*
X151661190Y-93729894D02*
X151661190Y-94110846D01*
X151137380Y-93206084D02*
X151137380Y-92587037D01*
X151137380Y-92587037D02*
X151518333Y-92920370D01*
X151518333Y-92920370D02*
X151518333Y-92777513D01*
X151518333Y-92777513D02*
X151565952Y-92682275D01*
X151565952Y-92682275D02*
X151613571Y-92634656D01*
X151613571Y-92634656D02*
X151708809Y-92587037D01*
X151708809Y-92587037D02*
X151946904Y-92587037D01*
X151946904Y-92587037D02*
X152042142Y-92634656D01*
X152042142Y-92634656D02*
X152089761Y-92682275D01*
X152089761Y-92682275D02*
X152137380Y-92777513D01*
X152137380Y-92777513D02*
X152137380Y-93063227D01*
X152137380Y-93063227D02*
X152089761Y-93158465D01*
X152089761Y-93158465D02*
X152042142Y-93206084D01*
%TO.C,Q2*%
X152643333Y-107118133D02*
X152536666Y-107064800D01*
X152536666Y-107064800D02*
X152430000Y-106958133D01*
X152430000Y-106958133D02*
X152270000Y-106798133D01*
X152270000Y-106798133D02*
X152163333Y-106744800D01*
X152163333Y-106744800D02*
X152056666Y-106744800D01*
X152110000Y-107011466D02*
X152003333Y-106958133D01*
X152003333Y-106958133D02*
X151896666Y-106851466D01*
X151896666Y-106851466D02*
X151843333Y-106638133D01*
X151843333Y-106638133D02*
X151843333Y-106264800D01*
X151843333Y-106264800D02*
X151896666Y-106051466D01*
X151896666Y-106051466D02*
X152003333Y-105944800D01*
X152003333Y-105944800D02*
X152110000Y-105891466D01*
X152110000Y-105891466D02*
X152323333Y-105891466D01*
X152323333Y-105891466D02*
X152430000Y-105944800D01*
X152430000Y-105944800D02*
X152536666Y-106051466D01*
X152536666Y-106051466D02*
X152590000Y-106264800D01*
X152590000Y-106264800D02*
X152590000Y-106638133D01*
X152590000Y-106638133D02*
X152536666Y-106851466D01*
X152536666Y-106851466D02*
X152430000Y-106958133D01*
X152430000Y-106958133D02*
X152323333Y-107011466D01*
X152323333Y-107011466D02*
X152110000Y-107011466D01*
X153016666Y-105998133D02*
X153069999Y-105944800D01*
X153069999Y-105944800D02*
X153176666Y-105891466D01*
X153176666Y-105891466D02*
X153443333Y-105891466D01*
X153443333Y-105891466D02*
X153549999Y-105944800D01*
X153549999Y-105944800D02*
X153603333Y-105998133D01*
X153603333Y-105998133D02*
X153656666Y-106104800D01*
X153656666Y-106104800D02*
X153656666Y-106211466D01*
X153656666Y-106211466D02*
X153603333Y-106371466D01*
X153603333Y-106371466D02*
X152963333Y-107011466D01*
X152963333Y-107011466D02*
X153656666Y-107011466D01*
%TO.C,Q1*%
X145693333Y-107098133D02*
X145586666Y-107044800D01*
X145586666Y-107044800D02*
X145480000Y-106938133D01*
X145480000Y-106938133D02*
X145320000Y-106778133D01*
X145320000Y-106778133D02*
X145213333Y-106724800D01*
X145213333Y-106724800D02*
X145106666Y-106724800D01*
X145160000Y-106991466D02*
X145053333Y-106938133D01*
X145053333Y-106938133D02*
X144946666Y-106831466D01*
X144946666Y-106831466D02*
X144893333Y-106618133D01*
X144893333Y-106618133D02*
X144893333Y-106244800D01*
X144893333Y-106244800D02*
X144946666Y-106031466D01*
X144946666Y-106031466D02*
X145053333Y-105924800D01*
X145053333Y-105924800D02*
X145160000Y-105871466D01*
X145160000Y-105871466D02*
X145373333Y-105871466D01*
X145373333Y-105871466D02*
X145480000Y-105924800D01*
X145480000Y-105924800D02*
X145586666Y-106031466D01*
X145586666Y-106031466D02*
X145640000Y-106244800D01*
X145640000Y-106244800D02*
X145640000Y-106618133D01*
X145640000Y-106618133D02*
X145586666Y-106831466D01*
X145586666Y-106831466D02*
X145480000Y-106938133D01*
X145480000Y-106938133D02*
X145373333Y-106991466D01*
X145373333Y-106991466D02*
X145160000Y-106991466D01*
X146706666Y-106991466D02*
X146066666Y-106991466D01*
X146386666Y-106991466D02*
X146386666Y-105871466D01*
X146386666Y-105871466D02*
X146279999Y-106031466D01*
X146279999Y-106031466D02*
X146173333Y-106138133D01*
X146173333Y-106138133D02*
X146066666Y-106191466D01*
%TO.C,R4*%
X159669306Y-85366738D02*
X159193116Y-85700071D01*
X159669306Y-85938166D02*
X158669306Y-85938166D01*
X158669306Y-85938166D02*
X158669306Y-85557214D01*
X158669306Y-85557214D02*
X158716926Y-85461976D01*
X158716926Y-85461976D02*
X158764545Y-85414357D01*
X158764545Y-85414357D02*
X158859783Y-85366738D01*
X158859783Y-85366738D02*
X159002640Y-85366738D01*
X159002640Y-85366738D02*
X159097878Y-85414357D01*
X159097878Y-85414357D02*
X159145497Y-85461976D01*
X159145497Y-85461976D02*
X159193116Y-85557214D01*
X159193116Y-85557214D02*
X159193116Y-85938166D01*
X159002640Y-84509595D02*
X159669306Y-84509595D01*
X158621687Y-84747690D02*
X159335973Y-84985785D01*
X159335973Y-84985785D02*
X159335973Y-84366738D01*
%TO.C,R2*%
X147057380Y-93543441D02*
X146581190Y-93876774D01*
X147057380Y-94114869D02*
X146057380Y-94114869D01*
X146057380Y-94114869D02*
X146057380Y-93733917D01*
X146057380Y-93733917D02*
X146105000Y-93638679D01*
X146105000Y-93638679D02*
X146152619Y-93591060D01*
X146152619Y-93591060D02*
X146247857Y-93543441D01*
X146247857Y-93543441D02*
X146390714Y-93543441D01*
X146390714Y-93543441D02*
X146485952Y-93591060D01*
X146485952Y-93591060D02*
X146533571Y-93638679D01*
X146533571Y-93638679D02*
X146581190Y-93733917D01*
X146581190Y-93733917D02*
X146581190Y-94114869D01*
X146152619Y-93162488D02*
X146105000Y-93114869D01*
X146105000Y-93114869D02*
X146057380Y-93019631D01*
X146057380Y-93019631D02*
X146057380Y-92781536D01*
X146057380Y-92781536D02*
X146105000Y-92686298D01*
X146105000Y-92686298D02*
X146152619Y-92638679D01*
X146152619Y-92638679D02*
X146247857Y-92591060D01*
X146247857Y-92591060D02*
X146343095Y-92591060D01*
X146343095Y-92591060D02*
X146485952Y-92638679D01*
X146485952Y-92638679D02*
X147057380Y-93210107D01*
X147057380Y-93210107D02*
X147057380Y-92591060D01*
%TO.C,G\u002A\u002A\u002A*%
G36*
X142378929Y-116229350D02*
G01*
X142378929Y-116313689D01*
X142006433Y-116313689D01*
X141633937Y-116313689D01*
X141633937Y-116229350D01*
X141633937Y-116145012D01*
X142006433Y-116145012D01*
X142378929Y-116145012D01*
X142378929Y-116229350D01*
G37*
G36*
X139700842Y-110160177D02*
G01*
X139836781Y-110163112D01*
X139967943Y-110167388D01*
X140089116Y-110172906D01*
X140195089Y-110179570D01*
X140280650Y-110187280D01*
X140312631Y-110191280D01*
X140589303Y-110239793D01*
X140842491Y-110303500D01*
X141072442Y-110382522D01*
X141279399Y-110476977D01*
X141463610Y-110586985D01*
X141625320Y-110712666D01*
X141764774Y-110854139D01*
X141822709Y-110926134D01*
X141929381Y-111086164D01*
X142014356Y-111254986D01*
X142078306Y-111435037D01*
X142121902Y-111628752D01*
X142145817Y-111838565D01*
X142150724Y-112066913D01*
X142149620Y-112110811D01*
X142135890Y-112313404D01*
X142107554Y-112495048D01*
X142063424Y-112659497D01*
X142002314Y-112810506D01*
X141923037Y-112951828D01*
X141852016Y-113052328D01*
X141744487Y-113173831D01*
X141613460Y-113291301D01*
X141463533Y-113401619D01*
X141299308Y-113501668D01*
X141125382Y-113588329D01*
X140969770Y-113650402D01*
X140919718Y-113668524D01*
X140881792Y-113683187D01*
X140862209Y-113691953D01*
X140860833Y-113693127D01*
X140868979Y-113705103D01*
X140891608Y-113735716D01*
X140926007Y-113781366D01*
X140969463Y-113838450D01*
X141015624Y-113898637D01*
X141239080Y-114196048D01*
X141458405Y-114501650D01*
X141669083Y-114808871D01*
X141866601Y-115111136D01*
X142034737Y-115382388D01*
X142189167Y-115638857D01*
X142614374Y-115638918D01*
X143039582Y-115638980D01*
X143039582Y-115730347D01*
X143039582Y-115821713D01*
X141929123Y-115821713D01*
X140818663Y-115821713D01*
X140818663Y-115730347D01*
X140818663Y-115638980D01*
X141162356Y-115638980D01*
X141506048Y-115638980D01*
X141434631Y-115523014D01*
X141273288Y-115267697D01*
X141096777Y-115001252D01*
X140903655Y-114721583D01*
X140692482Y-114426592D01*
X140510712Y-114179684D01*
X140435418Y-114078660D01*
X140374913Y-113997995D01*
X140327244Y-113935467D01*
X140290460Y-113888852D01*
X140262608Y-113855925D01*
X140241735Y-113834462D01*
X140225889Y-113822240D01*
X140213118Y-113817034D01*
X140201469Y-113816621D01*
X140193151Y-113817950D01*
X140169504Y-113820109D01*
X140121284Y-113822556D01*
X140052033Y-113825180D01*
X139965288Y-113827870D01*
X139864588Y-113830515D01*
X139753473Y-113833003D01*
X139655492Y-113834875D01*
X139160002Y-113843614D01*
X139160002Y-113581640D01*
X139160002Y-113319666D01*
X139500871Y-113319609D01*
X139737001Y-113317369D01*
X139948007Y-113310472D01*
X140136553Y-113298524D01*
X140305305Y-113281131D01*
X140456926Y-113257899D01*
X140594080Y-113228435D01*
X140719432Y-113192345D01*
X140835645Y-113149235D01*
X140924087Y-113109302D01*
X141076406Y-113021285D01*
X141206055Y-112916768D01*
X141313611Y-112795061D01*
X141399649Y-112655473D01*
X141464747Y-112497311D01*
X141481673Y-112441138D01*
X141492383Y-112399580D01*
X141500349Y-112359738D01*
X141505969Y-112316437D01*
X141509640Y-112264500D01*
X141511757Y-112198751D01*
X141512719Y-112114013D01*
X141512921Y-112033501D01*
X141512798Y-111933864D01*
X141512007Y-111857139D01*
X141510074Y-111798127D01*
X141506520Y-111751627D01*
X141500870Y-111712438D01*
X141492648Y-111675362D01*
X141481377Y-111635198D01*
X141474288Y-111611808D01*
X141408078Y-111440830D01*
X141319549Y-111286825D01*
X141208911Y-111149948D01*
X141076372Y-111030355D01*
X140922142Y-110928204D01*
X140746432Y-110843649D01*
X140549449Y-110776846D01*
X140331405Y-110727953D01*
X140275614Y-110718848D01*
X140075319Y-110695208D01*
X139853983Y-110682132D01*
X139610408Y-110679613D01*
X139343398Y-110687644D01*
X139051755Y-110706218D01*
X138991325Y-110711117D01*
X138879267Y-110720590D01*
X138773320Y-110729713D01*
X138677525Y-110738126D01*
X138595922Y-110745468D01*
X138532552Y-110751377D01*
X138491456Y-110755495D01*
X138481779Y-110756606D01*
X138415011Y-110765014D01*
X138415011Y-111184783D01*
X138415011Y-111604552D01*
X138752365Y-111874469D01*
X138836010Y-111941667D01*
X138912101Y-112003323D01*
X138977977Y-112057238D01*
X139030976Y-112101214D01*
X139068436Y-112133053D01*
X139087697Y-112150555D01*
X139089720Y-112153132D01*
X139077938Y-112161862D01*
X139044436Y-112182769D01*
X138991987Y-112214220D01*
X138923360Y-112254586D01*
X138841326Y-112302234D01*
X138748655Y-112355534D01*
X138660999Y-112405538D01*
X138561299Y-112462434D01*
X138469815Y-112515090D01*
X138389315Y-112561877D01*
X138322571Y-112601167D01*
X138272350Y-112631330D01*
X138241422Y-112650739D01*
X138232364Y-112657619D01*
X138244007Y-112666505D01*
X138277159Y-112688228D01*
X138329219Y-112721172D01*
X138397584Y-112763719D01*
X138479654Y-112814252D01*
X138572825Y-112871154D01*
X138674495Y-112932807D01*
X138696561Y-112946133D01*
X138799224Y-113008491D01*
X138893457Y-113066502D01*
X138976735Y-113118554D01*
X139046531Y-113163030D01*
X139100317Y-113198318D01*
X139135568Y-113222802D01*
X139149755Y-113234868D01*
X139149794Y-113235700D01*
X139135457Y-113244518D01*
X139099369Y-113265497D01*
X139044307Y-113297057D01*
X138973047Y-113337619D01*
X138888365Y-113385603D01*
X138793037Y-113439428D01*
X138689838Y-113497517D01*
X138682083Y-113501875D01*
X138578466Y-113560189D01*
X138482558Y-113614337D01*
X138397128Y-113662745D01*
X138324944Y-113703834D01*
X138268775Y-113736030D01*
X138231390Y-113757756D01*
X138215556Y-113767435D01*
X138215316Y-113767631D01*
X138224467Y-113777046D01*
X138254757Y-113800109D01*
X138303759Y-113835140D01*
X138369045Y-113880462D01*
X138448186Y-113934394D01*
X138538755Y-113995257D01*
X138638324Y-114061373D01*
X138675445Y-114085836D01*
X138778004Y-114153458D01*
X138872838Y-114216319D01*
X138957459Y-114272743D01*
X139029375Y-114321054D01*
X139086097Y-114359578D01*
X139125134Y-114386639D01*
X139143996Y-114400561D01*
X139145372Y-114402012D01*
X139133403Y-114410025D01*
X139099342Y-114429852D01*
X139045866Y-114460009D01*
X138975651Y-114499011D01*
X138891373Y-114545372D01*
X138795709Y-114597608D01*
X138691334Y-114654234D01*
X138669608Y-114665978D01*
X138563427Y-114723436D01*
X138465060Y-114776857D01*
X138377244Y-114824738D01*
X138302716Y-114865580D01*
X138244215Y-114897881D01*
X138204477Y-114920140D01*
X138186239Y-114930856D01*
X138185434Y-114931460D01*
X138192319Y-114942895D01*
X138217576Y-114967237D01*
X138256980Y-115000664D01*
X138295950Y-115031454D01*
X138415011Y-115122902D01*
X138415011Y-115704239D01*
X138415011Y-116285576D01*
X138119825Y-116285576D01*
X137824640Y-116285576D01*
X137824640Y-115850620D01*
X137824640Y-115415664D01*
X137466744Y-115137256D01*
X137380016Y-115069519D01*
X137300831Y-115007156D01*
X137231821Y-114952278D01*
X137175618Y-114907000D01*
X137134852Y-114873433D01*
X137112155Y-114853692D01*
X137108304Y-114849388D01*
X137120088Y-114840724D01*
X137153834Y-114820333D01*
X137206742Y-114789798D01*
X137276009Y-114750702D01*
X137358836Y-114704627D01*
X137452422Y-114653156D01*
X137539997Y-114605445D01*
X137641263Y-114550374D01*
X137734797Y-114499250D01*
X137817691Y-114453682D01*
X137887036Y-114415279D01*
X137939923Y-114385652D01*
X137973445Y-114366409D01*
X137984531Y-114359428D01*
X137975936Y-114349440D01*
X137946206Y-114325833D01*
X137897773Y-114290318D01*
X137833068Y-114244605D01*
X137754523Y-114190406D01*
X137664568Y-114129430D01*
X137565636Y-114063389D01*
X137535118Y-114043207D01*
X137418781Y-113966323D01*
X137323980Y-113903308D01*
X137248711Y-113852666D01*
X137190969Y-113812899D01*
X137148749Y-113782511D01*
X137120047Y-113760004D01*
X137102857Y-113743881D01*
X137095175Y-113732645D01*
X137094996Y-113724798D01*
X137100315Y-113718843D01*
X137100563Y-113718661D01*
X137118898Y-113707257D01*
X137158728Y-113683826D01*
X137217029Y-113650102D01*
X137290781Y-113607819D01*
X137376962Y-113558708D01*
X137472551Y-113504505D01*
X137554623Y-113458157D01*
X137671417Y-113392043D01*
X137765477Y-113338100D01*
X137838772Y-113295086D01*
X137893272Y-113261757D01*
X137930949Y-113236868D01*
X137953773Y-113219176D01*
X137963713Y-113207437D01*
X137962823Y-113200481D01*
X137946587Y-113189318D01*
X137909234Y-113165574D01*
X137853774Y-113131104D01*
X137783215Y-113087759D01*
X137700568Y-113037391D01*
X137608841Y-112981852D01*
X137550539Y-112946722D01*
X137452802Y-112887903D01*
X137360509Y-112832301D01*
X137277028Y-112781949D01*
X137205727Y-112738881D01*
X137149977Y-112705130D01*
X137113144Y-112682732D01*
X137102341Y-112676095D01*
X137047722Y-112642197D01*
X137549548Y-112357070D01*
X138051373Y-112071943D01*
X137941521Y-111982947D01*
X137893969Y-111943835D01*
X137854550Y-111910317D01*
X137828522Y-111886922D01*
X137821341Y-111879387D01*
X137819390Y-111862953D01*
X137817551Y-111821027D01*
X137815860Y-111756231D01*
X137814353Y-111671187D01*
X137813065Y-111568516D01*
X137812033Y-111450840D01*
X137811291Y-111320779D01*
X137810875Y-111180955D01*
X137810799Y-111102803D01*
X137810584Y-110340783D01*
X137863295Y-110326589D01*
X138001785Y-110294051D01*
X138163396Y-110264386D01*
X138343219Y-110238306D01*
X138536345Y-110216523D01*
X138737867Y-110199748D01*
X138738309Y-110199718D01*
X138833020Y-110192944D01*
X138936124Y-110185132D01*
X139036045Y-110177182D01*
X139121206Y-110169997D01*
X139131890Y-110169051D01*
X139213543Y-110163809D01*
X139316476Y-110160399D01*
X139435478Y-110158723D01*
X139565337Y-110158681D01*
X139700842Y-110160177D01*
G37*
G36*
X142927130Y-112972733D02*
G01*
X143834286Y-112972733D01*
X143839774Y-113181375D01*
X143841001Y-113195351D01*
X143876526Y-113434586D01*
X143937338Y-113663244D01*
X144022151Y-113879922D01*
X144129677Y-114083220D01*
X144258632Y-114271735D01*
X144407728Y-114444066D01*
X144575679Y-114598811D01*
X144761198Y-114734569D01*
X144963000Y-114849937D01*
X145179798Y-114943515D01*
X145410306Y-115013900D01*
X145534601Y-115040765D01*
X145603999Y-115049672D01*
X145694336Y-115055340D01*
X145798641Y-115057889D01*
X145909942Y-115057438D01*
X146021268Y-115054107D01*
X146125646Y-115048017D01*
X146216105Y-115039287D01*
X146285673Y-115028037D01*
X146286621Y-115027828D01*
X146522938Y-114961555D01*
X146745328Y-114871440D01*
X146952556Y-114758726D01*
X147143384Y-114624655D01*
X147316577Y-114470471D01*
X147470900Y-114297417D01*
X147605115Y-114106735D01*
X147717987Y-113899669D01*
X147808279Y-113677461D01*
X147874757Y-113441356D01*
X147877752Y-113427738D01*
X147895439Y-113318813D01*
X147906583Y-113191082D01*
X147911186Y-113053078D01*
X147909248Y-112913336D01*
X147900768Y-112780390D01*
X147885746Y-112662774D01*
X147877752Y-112621223D01*
X147813207Y-112386653D01*
X147724888Y-112165412D01*
X147614183Y-111958839D01*
X147482478Y-111768270D01*
X147331159Y-111595043D01*
X147161612Y-111440494D01*
X146975225Y-111305962D01*
X146773382Y-111192784D01*
X146557472Y-111102296D01*
X146328879Y-111035836D01*
X146209391Y-111011886D01*
X146135971Y-111000303D01*
X146070782Y-110992751D01*
X146005383Y-110988786D01*
X145931333Y-110987965D01*
X145840191Y-110989846D01*
X145808702Y-110990856D01*
X145682695Y-110996887D01*
X145575693Y-111006652D01*
X145478672Y-111021709D01*
X145382610Y-111043614D01*
X145278482Y-111073921D01*
X145223232Y-111091829D01*
X145007289Y-111178071D01*
X144804167Y-111288273D01*
X144615565Y-111420577D01*
X144443184Y-111573123D01*
X144288723Y-111744053D01*
X144153882Y-111931508D01*
X144040361Y-112133627D01*
X143949861Y-112348553D01*
X143889805Y-112550125D01*
X143851216Y-112758974D01*
X143834286Y-112972733D01*
X142927130Y-112972733D01*
X142927130Y-112743352D01*
X142839278Y-112742514D01*
X142780684Y-112740198D01*
X142720943Y-112734968D01*
X142667545Y-112727810D01*
X142627980Y-112719708D01*
X142610354Y-112712390D01*
X142609269Y-112695652D01*
X142613145Y-112656806D01*
X142620995Y-112601221D01*
X142631833Y-112534264D01*
X142644673Y-112461304D01*
X142658528Y-112387710D01*
X142672413Y-112318851D01*
X142685339Y-112260094D01*
X142696323Y-112216808D01*
X142704376Y-112194362D01*
X142705854Y-112192611D01*
X142717309Y-112185782D01*
X142729050Y-112182873D01*
X142747470Y-112184636D01*
X142778961Y-112191826D01*
X142829916Y-112205197D01*
X142843742Y-112208876D01*
X142911666Y-112226235D01*
X142958151Y-112234752D01*
X142988785Y-112233315D01*
X143009159Y-112220810D01*
X143024863Y-112196126D01*
X143036261Y-112170551D01*
X143056542Y-112117779D01*
X143077678Y-112055429D01*
X143088481Y-112019868D01*
X143106341Y-111964304D01*
X143126675Y-111911036D01*
X143139022Y-111883860D01*
X143165598Y-111831767D01*
X143126564Y-111798922D01*
X143093678Y-111778109D01*
X143044185Y-111754492D01*
X142988502Y-111733013D01*
X142985691Y-111732067D01*
X142934358Y-111714464D01*
X142904657Y-111701497D01*
X142891524Y-111688977D01*
X142889900Y-111672713D01*
X142893200Y-111655493D01*
X142918073Y-111578186D01*
X142959961Y-111489589D01*
X143003330Y-111415805D01*
X143037013Y-111360631D01*
X143070710Y-111301483D01*
X143088542Y-111267892D01*
X143109983Y-111229320D01*
X143127897Y-111203623D01*
X143136035Y-111197142D01*
X143152775Y-111204286D01*
X143186051Y-111223113D01*
X143229003Y-111249718D01*
X143233772Y-111252789D01*
X143301765Y-111295918D01*
X143350639Y-111324502D01*
X143384247Y-111340202D01*
X143406440Y-111344680D01*
X143421071Y-111339596D01*
X143425491Y-111335457D01*
X143440464Y-111317350D01*
X143469302Y-111281256D01*
X143508666Y-111231420D01*
X143555217Y-111172088D01*
X143605613Y-111107504D01*
X143656515Y-111041915D01*
X143661695Y-111035218D01*
X143676395Y-111010159D01*
X143676878Y-110986406D01*
X143660718Y-110959617D01*
X143625489Y-110925449D01*
X143579307Y-110887808D01*
X143537337Y-110852092D01*
X143505828Y-110820071D01*
X143490188Y-110797410D01*
X143489388Y-110793652D01*
X143498143Y-110760946D01*
X143525348Y-110719352D01*
X143572410Y-110667278D01*
X143640737Y-110603131D01*
X143712243Y-110541559D01*
X143871844Y-110407835D01*
X143905619Y-110439565D01*
X143930901Y-110468048D01*
X143963239Y-110510764D01*
X143992006Y-110552967D01*
X144020820Y-110593876D01*
X144046178Y-110623217D01*
X144062680Y-110634755D01*
X144062886Y-110634762D01*
X144086993Y-110629347D01*
X144124244Y-110611908D01*
X144177144Y-110581022D01*
X144248195Y-110535268D01*
X144303822Y-110497884D01*
X144357222Y-110461501D01*
X144401458Y-110431205D01*
X144431720Y-110410298D01*
X144443113Y-110402175D01*
X144443300Y-110385023D01*
X144431953Y-110349948D01*
X144411718Y-110303302D01*
X144385242Y-110251433D01*
X144367226Y-110220057D01*
X144343198Y-110178971D01*
X144326958Y-110148893D01*
X144321955Y-110136223D01*
X144321992Y-110136192D01*
X144334515Y-110127060D01*
X144361610Y-110107037D01*
X144374944Y-110097145D01*
X144453649Y-110047553D01*
X144551265Y-109999913D01*
X144658678Y-109958424D01*
X144713189Y-109941304D01*
X144829308Y-109907780D01*
X144869011Y-110021830D01*
X144887244Y-110076905D01*
X144901113Y-110123927D01*
X144908353Y-110155027D01*
X144908901Y-110160479D01*
X144915336Y-110176633D01*
X144936204Y-110183700D01*
X144974327Y-110181460D01*
X145032527Y-110169687D01*
X145113623Y-110148160D01*
X145132293Y-110142822D01*
X145198616Y-110125143D01*
X145260788Y-110111123D01*
X145310322Y-110102549D01*
X145332246Y-110100739D01*
X145354586Y-110101160D01*
X145369729Y-110099591D01*
X145378076Y-110091788D01*
X145380034Y-110073507D01*
X145376003Y-110040504D01*
X145366388Y-109988535D01*
X145351593Y-109913354D01*
X145350557Y-109908056D01*
X145340845Y-109855895D01*
X145333790Y-109813435D01*
X145330804Y-109789227D01*
X145330783Y-109788269D01*
X145340904Y-109778665D01*
X145372660Y-109768790D01*
X145428136Y-109758163D01*
X145509418Y-109746302D01*
X145517031Y-109745294D01*
X145644753Y-109730732D01*
X145753189Y-109723035D01*
X145840110Y-109722258D01*
X145903286Y-109728458D01*
X145927267Y-109734924D01*
X145943674Y-109742299D01*
X145954153Y-109753131D01*
X145960032Y-109773081D01*
X145962640Y-109807809D01*
X145963304Y-109862976D01*
X145963323Y-109888598D01*
X145963929Y-109953565D01*
X145966332Y-109995676D01*
X145971405Y-110020174D01*
X145980023Y-110032301D01*
X145987922Y-110036027D01*
X146023322Y-110043959D01*
X146079376Y-110053338D01*
X146148736Y-110063132D01*
X146224053Y-110072307D01*
X146297978Y-110079831D01*
X146302606Y-110080242D01*
X146409957Y-110089689D01*
X146425113Y-110042502D01*
X146433985Y-110008166D01*
X146444565Y-109957921D01*
X146455067Y-109901586D01*
X146463700Y-109848983D01*
X146468679Y-109809933D01*
X146469249Y-109800073D01*
X146482211Y-109792523D01*
X146518778Y-109792983D01*
X146575770Y-109800924D01*
X146650008Y-109815817D01*
X146738311Y-109837134D01*
X146812142Y-109857100D01*
X146895181Y-109881822D01*
X146955902Y-109902749D01*
X146992510Y-109919199D01*
X147003355Y-109929559D01*
X146999192Y-109950201D01*
X146987868Y-109990727D01*
X146971331Y-110044427D01*
X146959247Y-110081595D01*
X146939210Y-110144117D01*
X146928119Y-110185691D01*
X146925105Y-110211714D01*
X146929300Y-110227582D01*
X146934649Y-110234216D01*
X146954101Y-110246981D01*
X146993844Y-110268716D01*
X147048610Y-110296679D01*
X147113133Y-110328126D01*
X147133181Y-110337630D01*
X147312060Y-110421878D01*
X147349786Y-110377274D01*
X147375430Y-110340937D01*
X147405048Y-110290218D01*
X147429726Y-110241304D01*
X147450960Y-110195790D01*
X147467354Y-110161479D01*
X147475618Y-110145247D01*
X147475845Y-110144914D01*
X147490868Y-110147030D01*
X147523976Y-110162932D01*
X147570668Y-110189663D01*
X147626446Y-110224269D01*
X147686808Y-110263793D01*
X147747255Y-110305280D01*
X147803286Y-110345776D01*
X147850402Y-110382323D01*
X147884103Y-110411968D01*
X147887156Y-110415049D01*
X147910542Y-110441613D01*
X147921734Y-110464874D01*
X147919302Y-110489964D01*
X147901813Y-110522012D01*
X147867835Y-110566151D01*
X147833659Y-110606772D01*
X147799675Y-110647312D01*
X147772602Y-110680850D01*
X147758028Y-110700454D01*
X147757691Y-110701006D01*
X147763306Y-110716667D01*
X147785587Y-110747341D01*
X147820582Y-110788929D01*
X147864339Y-110837332D01*
X147912905Y-110888453D01*
X147962327Y-110938192D01*
X148008655Y-110982452D01*
X148047934Y-111017134D01*
X148076214Y-111038140D01*
X148087026Y-111042521D01*
X148106659Y-111032039D01*
X148138054Y-111003770D01*
X148176187Y-110962478D01*
X148194454Y-110940612D01*
X148241507Y-110886613D01*
X148280418Y-110850162D01*
X148307920Y-110834291D01*
X148309394Y-110834020D01*
X148341659Y-110842654D01*
X148383622Y-110875024D01*
X148433527Y-110929190D01*
X148489620Y-111003213D01*
X148550146Y-111095154D01*
X148559613Y-111110558D01*
X148646828Y-111253708D01*
X148601275Y-111299221D01*
X148564207Y-111330150D01*
X148513674Y-111364758D01*
X148468927Y-111390950D01*
X148434387Y-111409035D01*
X148410341Y-111423867D01*
X148397064Y-111439722D01*
X148394830Y-111460876D01*
X148403913Y-111491603D01*
X148424587Y-111536179D01*
X148457125Y-111598879D01*
X148485740Y-111653233D01*
X148516399Y-111714026D01*
X148541394Y-111768030D01*
X148558064Y-111809186D01*
X148563766Y-111830851D01*
X148565574Y-111845175D01*
X148573671Y-111852035D01*
X148592066Y-111850568D01*
X148624768Y-111839909D01*
X148675786Y-111819197D01*
X148733795Y-111794238D01*
X148802047Y-111764885D01*
X148849819Y-111747944D01*
X148882719Y-111745340D01*
X148906351Y-111759000D01*
X148926321Y-111790851D01*
X148948235Y-111842818D01*
X148959661Y-111871852D01*
X148980174Y-111927776D01*
X149001556Y-111992602D01*
X149022271Y-112060765D01*
X149040783Y-112126700D01*
X149055556Y-112184843D01*
X149065053Y-112229629D01*
X149067738Y-112255495D01*
X149066611Y-112259248D01*
X149051734Y-112264034D01*
X149015416Y-112273142D01*
X148963725Y-112285101D01*
X148923223Y-112294037D01*
X148848163Y-112310126D01*
X148796513Y-112322473D01*
X148764476Y-112334414D01*
X148748256Y-112349287D01*
X148744055Y-112370426D01*
X148748076Y-112401171D01*
X148755836Y-112441138D01*
X148766377Y-112506739D01*
X148776284Y-112583618D01*
X148783321Y-112654121D01*
X148788220Y-112710565D01*
X148793529Y-112745059D01*
X148801777Y-112763684D01*
X148815494Y-112772523D01*
X148834491Y-112777115D01*
X148867320Y-112780883D01*
X148919161Y-112783778D01*
X148980912Y-112785357D01*
X149007471Y-112785521D01*
X149080360Y-112787280D01*
X149126844Y-112792679D01*
X149148416Y-112801905D01*
X149149290Y-112803091D01*
X149156169Y-112828569D01*
X149160870Y-112875289D01*
X149163516Y-112937526D01*
X149164229Y-113009551D01*
X149163131Y-113085638D01*
X149160345Y-113160060D01*
X149155994Y-113227090D01*
X149150199Y-113281001D01*
X149143084Y-113316066D01*
X149138112Y-113325787D01*
X149122219Y-113327060D01*
X149085522Y-113325712D01*
X149035145Y-113322363D01*
X148978210Y-113317635D01*
X148921839Y-113312149D01*
X148873154Y-113306525D01*
X148839279Y-113301384D01*
X148829191Y-113298856D01*
X148813681Y-113299293D01*
X148801326Y-113318094D01*
X148789533Y-113357196D01*
X148781729Y-113391534D01*
X148771076Y-113442790D01*
X148758852Y-113504265D01*
X148746336Y-113569257D01*
X148734805Y-113631063D01*
X148725538Y-113682984D01*
X148719814Y-113718317D01*
X148718600Y-113729086D01*
X148730946Y-113741311D01*
X148764068Y-113757731D01*
X148811417Y-113775941D01*
X148866444Y-113793530D01*
X148922598Y-113808093D01*
X148947310Y-113813168D01*
X148998748Y-113823647D01*
X149028277Y-113835888D01*
X149039481Y-113856253D01*
X149035942Y-113891099D01*
X149021693Y-113945178D01*
X149011631Y-113978054D01*
X148995457Y-114027501D01*
X148975160Y-114087795D01*
X148952726Y-114153211D01*
X148930143Y-114218026D01*
X148909397Y-114276517D01*
X148892477Y-114322958D01*
X148881370Y-114351627D01*
X148878447Y-114357761D01*
X148862732Y-114357721D01*
X148828016Y-114348060D01*
X148780701Y-114331194D01*
X148727193Y-114309537D01*
X148673895Y-114285505D01*
X148635879Y-114266282D01*
X148591621Y-114243447D01*
X148557968Y-114228055D01*
X148541489Y-114223080D01*
X148540981Y-114223321D01*
X148532702Y-114237054D01*
X148513888Y-114270783D01*
X148487194Y-114319677D01*
X148455277Y-114378906D01*
X148449796Y-114389144D01*
X148415623Y-114451852D01*
X148384358Y-114507077D01*
X148359264Y-114549197D01*
X148343606Y-114572588D01*
X148342684Y-114573680D01*
X148329103Y-114601590D01*
X148329874Y-114619849D01*
X148344734Y-114636200D01*
X148378217Y-114663006D01*
X148424905Y-114696150D01*
X148464684Y-114722282D01*
X148516542Y-114756573D01*
X148558170Y-114786596D01*
X148584593Y-114808605D01*
X148591447Y-114817723D01*
X148583485Y-114839894D01*
X148561348Y-114878635D01*
X148528706Y-114928790D01*
X148489227Y-114985204D01*
X148446581Y-115042722D01*
X148404435Y-115096190D01*
X148366459Y-115140451D01*
X148348298Y-115159376D01*
X148307303Y-115198023D01*
X148278935Y-115219580D01*
X148256781Y-115227641D01*
X148234428Y-115225799D01*
X148231144Y-115225012D01*
X148202021Y-115209653D01*
X148161587Y-115177740D01*
X148116305Y-115134496D01*
X148106931Y-115124621D01*
X148066948Y-115083986D01*
X148032375Y-115052859D01*
X148008708Y-115036036D01*
X148003470Y-115034386D01*
X147985980Y-115043614D01*
X147953364Y-115068479D01*
X147910600Y-115104970D01*
X147871592Y-115140624D01*
X147819361Y-115187904D01*
X147768334Y-115230903D01*
X147725523Y-115263866D01*
X147704575Y-115277674D01*
X147671842Y-115297782D01*
X147652472Y-115312423D01*
X147650222Y-115315681D01*
X147658508Y-115328889D01*
X147680850Y-115358633D01*
X147713351Y-115399817D01*
X147735236Y-115426833D01*
X147782711Y-115487258D01*
X147820885Y-115540450D01*
X147847254Y-115582539D01*
X147859313Y-115609651D01*
X147858466Y-115617274D01*
X147827458Y-115640393D01*
X147778590Y-115673767D01*
X147718210Y-115713360D01*
X147652665Y-115755137D01*
X147588303Y-115795060D01*
X147531474Y-115829095D01*
X147488526Y-115853205D01*
X147482443Y-115856339D01*
X147386185Y-115904814D01*
X147311811Y-115750812D01*
X147282215Y-115691544D01*
X147256047Y-115642851D01*
X147236079Y-115609643D01*
X147225081Y-115596829D01*
X147224874Y-115596810D01*
X147207859Y-115602432D01*
X147170936Y-115617725D01*
X147119604Y-115640329D01*
X147061524Y-115666881D01*
X146997472Y-115695647D01*
X146938419Y-115720379D01*
X146891429Y-115738224D01*
X146865752Y-115745948D01*
X146840219Y-115753936D01*
X146825767Y-115768332D01*
X146822327Y-115793443D01*
X146829827Y-115833578D01*
X146848198Y-115893045D01*
X146862658Y-115934840D01*
X146887119Y-116005910D01*
X146900804Y-116055538D01*
X146902454Y-116088739D01*
X146890810Y-116110522D01*
X146864611Y-116125902D01*
X146822599Y-116139891D01*
X146810224Y-116143539D01*
X146695260Y-116175972D01*
X146601140Y-116199485D01*
X146522492Y-116215309D01*
X146457776Y-116224281D01*
X146373724Y-116233066D01*
X146359061Y-116157412D01*
X146349112Y-116098892D01*
X146339622Y-116031523D01*
X146335214Y-115993905D01*
X146326030Y-115906052D01*
X146247233Y-115906052D01*
X146198942Y-115907679D01*
X146133093Y-115912056D01*
X146060023Y-115918426D01*
X146016682Y-115922926D01*
X145864928Y-115939801D01*
X145864928Y-116076632D01*
X145863543Y-116140037D01*
X145859828Y-116196335D01*
X145854445Y-116237186D01*
X145851219Y-116249520D01*
X145845376Y-116263425D01*
X145837477Y-116273526D01*
X145823902Y-116279907D01*
X145801033Y-116282651D01*
X145765250Y-116281843D01*
X145712936Y-116277566D01*
X145640471Y-116269904D01*
X145544236Y-116258942D01*
X145527573Y-116257023D01*
X145452710Y-116248355D01*
X145388379Y-116240815D01*
X145339442Y-116234981D01*
X145310760Y-116231429D01*
X145305323Y-116230643D01*
X145304445Y-116216957D01*
X145307744Y-116182270D01*
X145314202Y-116133211D01*
X145322801Y-116076407D01*
X145332522Y-116018486D01*
X145342347Y-115966077D01*
X145351258Y-115925807D01*
X145353368Y-115917901D01*
X145348843Y-115902012D01*
X145324767Y-115885922D01*
X145279020Y-115868833D01*
X145209484Y-115849943D01*
X145119936Y-115829701D01*
X145062616Y-115815895D01*
X145011051Y-115800672D01*
X144975820Y-115787179D01*
X144974251Y-115786387D01*
X144945078Y-115771983D01*
X144929166Y-115765515D01*
X144928853Y-115765488D01*
X144917946Y-115777814D01*
X144900729Y-115810789D01*
X144879834Y-115858411D01*
X144857892Y-115914676D01*
X144837533Y-115973580D01*
X144837227Y-115974535D01*
X144819438Y-116024636D01*
X144802441Y-116063252D01*
X144789426Y-116083316D01*
X144787610Y-116084470D01*
X144766262Y-116082427D01*
X144725554Y-116070067D01*
X144670392Y-116049593D01*
X144605681Y-116023208D01*
X144536329Y-115993116D01*
X144467243Y-115961519D01*
X144403329Y-115930621D01*
X144349493Y-115902624D01*
X144310642Y-115879732D01*
X144291683Y-115864148D01*
X144290606Y-115861316D01*
X144297293Y-115842369D01*
X144315324Y-115805286D01*
X144341656Y-115756081D01*
X144362639Y-115718960D01*
X144434672Y-115594148D01*
X144407321Y-115556824D01*
X144382918Y-115532627D01*
X144341483Y-115500360D01*
X144290508Y-115465698D01*
X144270706Y-115453387D01*
X144215216Y-115418988D01*
X144163254Y-115385356D01*
X144123739Y-115358305D01*
X144115149Y-115351966D01*
X144068858Y-115316657D01*
X143999983Y-115389966D01*
X143959348Y-115435951D01*
X143921939Y-115482895D01*
X143898483Y-115516602D01*
X143877560Y-115548993D01*
X143862657Y-115560993D01*
X143845187Y-115556229D01*
X143828730Y-115546081D01*
X143778206Y-115510640D01*
X143720873Y-115465625D01*
X143660793Y-115414815D01*
X143602029Y-115361988D01*
X143548643Y-115310921D01*
X143504698Y-115265393D01*
X143474256Y-115229182D01*
X143461380Y-115206065D01*
X143461208Y-115204306D01*
X143470925Y-115186157D01*
X143497301Y-115154051D01*
X143536090Y-115112823D01*
X143574456Y-115075342D01*
X143687771Y-114968540D01*
X143608010Y-114871524D01*
X143562407Y-114814140D01*
X143515363Y-114751861D01*
X143476074Y-114696902D01*
X143471502Y-114690169D01*
X143443258Y-114648308D01*
X143421716Y-114616597D01*
X143411140Y-114601308D01*
X143410843Y-114600915D01*
X143398444Y-114606196D01*
X143368531Y-114624467D01*
X143326461Y-114652371D01*
X143303733Y-114668053D01*
X143250818Y-114701991D01*
X143199982Y-114729475D01*
X143159906Y-114745967D01*
X143150400Y-114748243D01*
X143100267Y-114756378D01*
X143001265Y-114575681D01*
X142963956Y-114507343D01*
X142929681Y-114444120D01*
X142901603Y-114391881D01*
X142882889Y-114356495D01*
X142879353Y-114349605D01*
X142856441Y-114304227D01*
X142909377Y-114270809D01*
X142951421Y-114248134D01*
X143006923Y-114223133D01*
X143053659Y-114204976D01*
X143100921Y-114187541D01*
X143137285Y-114172897D01*
X143154936Y-114164194D01*
X143154981Y-114164156D01*
X143154437Y-114148324D01*
X143144658Y-114112900D01*
X143127513Y-114064114D01*
X143116662Y-114036408D01*
X143090843Y-113967066D01*
X143066419Y-113892051D01*
X143047993Y-113825675D01*
X143045553Y-113815237D01*
X143036336Y-113771805D01*
X143028291Y-113742756D01*
X143016474Y-113726618D01*
X142995941Y-113721921D01*
X142961749Y-113727194D01*
X142908953Y-113740965D01*
X142850102Y-113757086D01*
X142783042Y-113774549D01*
X142737751Y-113782611D01*
X142708870Y-113779248D01*
X142691038Y-113762434D01*
X142678898Y-113730145D01*
X142668966Y-113688648D01*
X142638648Y-113536331D01*
X142621854Y-113406878D01*
X142617995Y-113323180D01*
X142617888Y-113235327D01*
X142728583Y-113235327D01*
X142788139Y-113234206D01*
X142842322Y-113231249D01*
X142880376Y-113227068D01*
X142883204Y-113226542D01*
X142927130Y-113217757D01*
X142927130Y-112980554D01*
X142927130Y-112972733D01*
G37*
G36*
X156203445Y-115962278D02*
G01*
X156301086Y-116060673D01*
X156203445Y-116159068D01*
X156105803Y-116257463D01*
X155360058Y-116257463D01*
X154614312Y-116257463D01*
X154516671Y-116159068D01*
X154419030Y-116060673D01*
X154516671Y-115962278D01*
X154614312Y-115863883D01*
X155360058Y-115863883D01*
X156105803Y-115863883D01*
X156203445Y-115962278D01*
G37*
G36*
X161179427Y-115962278D02*
G01*
X161277068Y-116060673D01*
X161179427Y-116159068D01*
X161081786Y-116257463D01*
X160336040Y-116257463D01*
X159590294Y-116257463D01*
X159492653Y-116159068D01*
X159395012Y-116060673D01*
X159492653Y-115962278D01*
X159590294Y-115863883D01*
X160336040Y-115863883D01*
X161081786Y-115863883D01*
X161179427Y-115962278D01*
G37*
G36*
X149603943Y-112759455D02*
G01*
X149603943Y-111691938D01*
X150208370Y-111691938D01*
X150208370Y-112759455D01*
X151006073Y-112753422D01*
X151177970Y-112752065D01*
X151324377Y-112750736D01*
X151447917Y-112749335D01*
X151551213Y-112747764D01*
X151636886Y-112745925D01*
X151707560Y-112743718D01*
X151765857Y-112741044D01*
X151814401Y-112737805D01*
X151855813Y-112733903D01*
X151892716Y-112729238D01*
X151927734Y-112723712D01*
X151962464Y-112717419D01*
X152141016Y-112677031D01*
X152296086Y-112627101D01*
X152431167Y-112566014D01*
X152549751Y-112492151D01*
X152655331Y-112403895D01*
X152669799Y-112389776D01*
X152762853Y-112283892D01*
X152834808Y-112170734D01*
X152887019Y-112046647D01*
X152920843Y-111907977D01*
X152937634Y-111751068D01*
X152940084Y-111661005D01*
X152937162Y-111542524D01*
X152926099Y-111442610D01*
X152905106Y-111352443D01*
X152872388Y-111263203D01*
X152848688Y-111211199D01*
X152803169Y-111136216D01*
X152738191Y-111055457D01*
X152659842Y-110974873D01*
X152574214Y-110900411D01*
X152487398Y-110838023D01*
X152436317Y-110808364D01*
X152298896Y-110744760D01*
X152149888Y-110691472D01*
X151984990Y-110647296D01*
X151799904Y-110611026D01*
X151656184Y-110589716D01*
X151566779Y-110580977D01*
X151454431Y-110574812D01*
X151324181Y-110571122D01*
X151181073Y-110569814D01*
X151030149Y-110570789D01*
X150876451Y-110573954D01*
X150725021Y-110579210D01*
X150580903Y-110586463D01*
X150449138Y-110595617D01*
X150334769Y-110606575D01*
X150261082Y-110616282D01*
X150208370Y-110624421D01*
X150208370Y-111691938D01*
X149603943Y-111691938D01*
X149603943Y-110214275D01*
X149656654Y-110200709D01*
X149809494Y-110166375D01*
X149985004Y-110135584D01*
X150177916Y-110108754D01*
X150382960Y-110086303D01*
X150594869Y-110068651D01*
X150808374Y-110056215D01*
X151018207Y-110049415D01*
X151219097Y-110048667D01*
X151405778Y-110054392D01*
X151459394Y-110057511D01*
X151742406Y-110082115D01*
X152000878Y-110117547D01*
X152236427Y-110164336D01*
X152450672Y-110223012D01*
X152645230Y-110294104D01*
X152821720Y-110378142D01*
X152981760Y-110475657D01*
X153126968Y-110587177D01*
X153156504Y-110613122D01*
X153226345Y-110684180D01*
X153299081Y-110772309D01*
X153367820Y-110868225D01*
X153425669Y-110962642D01*
X153448185Y-111006033D01*
X153507517Y-111158348D01*
X153548237Y-111326210D01*
X153570342Y-111504089D01*
X153573827Y-111686458D01*
X153558689Y-111867787D01*
X153524922Y-112042550D01*
X153472523Y-112205218D01*
X153449124Y-112259698D01*
X153359410Y-112421833D01*
X153248151Y-112568680D01*
X153118039Y-112697644D01*
X152971765Y-112806132D01*
X152812022Y-112891547D01*
X152779002Y-112905509D01*
X152671881Y-112948877D01*
X152800087Y-112987691D01*
X153004492Y-113061936D01*
X153188686Y-113154524D01*
X153352090Y-113264890D01*
X153494130Y-113392466D01*
X153614230Y-113536687D01*
X153711814Y-113696986D01*
X153786306Y-113872795D01*
X153821430Y-113992513D01*
X153855386Y-114172436D01*
X153872893Y-114364831D01*
X153873346Y-114558945D01*
X153861520Y-114704226D01*
X153825987Y-114905401D01*
X153770231Y-115088574D01*
X153692907Y-115256577D01*
X153592665Y-115412242D01*
X153468160Y-115558403D01*
X153443021Y-115583967D01*
X153293751Y-115715176D01*
X153124063Y-115831445D01*
X152933255Y-115933051D01*
X152720627Y-116020270D01*
X152485480Y-116093378D01*
X152227113Y-116152653D01*
X151944825Y-116198370D01*
X151860002Y-116208943D01*
X151783944Y-116215922D01*
X151684907Y-116222100D01*
X151567998Y-116227399D01*
X151438320Y-116231739D01*
X151300980Y-116235040D01*
X151161082Y-116237222D01*
X151023731Y-116238206D01*
X150894032Y-116237912D01*
X150777090Y-116236260D01*
X150678010Y-116233171D01*
X150601950Y-116228570D01*
X150484496Y-116217522D01*
X150360652Y-116204104D01*
X150234456Y-116188906D01*
X150109948Y-116172519D01*
X149991169Y-116155532D01*
X149882159Y-116138536D01*
X149786955Y-116122121D01*
X149709600Y-116106877D01*
X149654132Y-116093394D01*
X149635570Y-116087386D01*
X149603943Y-116075425D01*
X149603943Y-113274913D01*
X150208370Y-113274913D01*
X150208370Y-114470055D01*
X150208395Y-114681255D01*
X150208494Y-114866104D01*
X150208702Y-115026361D01*
X150209057Y-115163789D01*
X150209593Y-115280148D01*
X150210347Y-115377200D01*
X150211356Y-115456705D01*
X150212654Y-115520424D01*
X150214278Y-115570119D01*
X150216265Y-115607550D01*
X150218649Y-115634479D01*
X150221468Y-115652666D01*
X150224757Y-115663874D01*
X150228552Y-115669861D01*
X150232889Y-115672391D01*
X150232969Y-115672415D01*
X150256068Y-115676219D01*
X150302251Y-115681544D01*
X150366555Y-115687970D01*
X150444016Y-115695079D01*
X150529672Y-115702455D01*
X150618560Y-115709680D01*
X150705717Y-115716334D01*
X150786181Y-115722001D01*
X150854988Y-115726263D01*
X150897136Y-115728334D01*
X150997415Y-115730477D01*
X151117738Y-115730061D01*
X151250179Y-115727350D01*
X151386810Y-115722608D01*
X151519706Y-115716100D01*
X151640939Y-115708089D01*
X151724539Y-115700743D01*
X151964768Y-115669833D01*
X152180493Y-115627940D01*
X152373395Y-115574309D01*
X152545159Y-115508182D01*
X152697466Y-115428802D01*
X152831999Y-115335414D01*
X152950441Y-115227261D01*
X153054474Y-115103586D01*
X153055363Y-115102382D01*
X153129738Y-114978389D01*
X153183565Y-114835761D01*
X153216909Y-114674254D01*
X153229839Y-114493622D01*
X153230016Y-114462345D01*
X153219743Y-114273272D01*
X153189737Y-114102422D01*
X153139457Y-113949257D01*
X153068361Y-113813241D01*
X152975908Y-113693835D01*
X152861556Y-113590501D01*
X152724764Y-113502702D01*
X152564991Y-113429901D01*
X152381695Y-113371560D01*
X152174335Y-113327140D01*
X152070849Y-113311252D01*
X152028252Y-113306118D01*
X151979284Y-113301654D01*
X151921549Y-113297792D01*
X151852654Y-113294459D01*
X151770202Y-113291587D01*
X151671798Y-113289106D01*
X151555046Y-113286945D01*
X151417553Y-113285034D01*
X151256922Y-113283304D01*
X151070758Y-113281684D01*
X151055271Y-113281562D01*
X150208370Y-113274913D01*
X149603943Y-113274913D01*
X149603943Y-113144850D01*
X149603943Y-112759455D01*
G37*
G36*
X158881212Y-114240378D02*
G01*
X158979593Y-114338004D01*
X158979593Y-115196202D01*
X158979593Y-116054399D01*
X158884359Y-116148903D01*
X158842673Y-116189581D01*
X158808666Y-116221477D01*
X158787042Y-116240247D01*
X158782044Y-116243407D01*
X158769656Y-116234093D01*
X158742542Y-116209190D01*
X158705584Y-116173254D01*
X158687516Y-116155176D01*
X158600069Y-116066945D01*
X158600069Y-115195417D01*
X158600069Y-114323890D01*
X158691450Y-114233320D01*
X158782832Y-114142751D01*
X158881212Y-114240378D01*
G37*
G36*
X142702227Y-115983363D02*
G01*
X142702227Y-116074730D01*
X141964264Y-116074730D01*
X141226300Y-116074730D01*
X141226300Y-115983363D01*
X141226300Y-115891996D01*
X141964264Y-115891996D01*
X142702227Y-115891996D01*
X142702227Y-115983363D01*
G37*
G36*
X156425199Y-114244218D02*
G01*
X156519715Y-114339464D01*
X156519715Y-115091508D01*
X156519715Y-115843552D01*
X156424469Y-115938068D01*
X156329223Y-116032584D01*
X156234707Y-115937338D01*
X156140191Y-115842093D01*
X156140191Y-115090048D01*
X156140191Y-114338004D01*
X156235437Y-114243488D01*
X156330683Y-114148972D01*
X156425199Y-114244218D01*
G37*
G36*
X159461391Y-114244218D02*
G01*
X159555907Y-114339464D01*
X159555907Y-115091508D01*
X159555907Y-115843552D01*
X159460661Y-115938068D01*
X159365415Y-116032584D01*
X159270899Y-115937338D01*
X159176383Y-115842093D01*
X159176383Y-115090048D01*
X159176383Y-114338004D01*
X159271629Y-114243488D01*
X159366875Y-114148972D01*
X159461391Y-114244218D01*
G37*
G36*
X161401181Y-114244218D02*
G01*
X161495697Y-114339464D01*
X161495697Y-115091508D01*
X161495697Y-115843552D01*
X161400451Y-115938068D01*
X161305205Y-116032584D01*
X161210689Y-115937338D01*
X161116173Y-115842093D01*
X161116173Y-115090048D01*
X161116173Y-114338004D01*
X161211419Y-114243488D01*
X161306665Y-114148972D01*
X161401181Y-114244218D01*
G37*
G36*
X158304883Y-114690169D02*
G01*
X158395438Y-114781536D01*
X158304883Y-114872903D01*
X158214329Y-114964270D01*
X157510694Y-114964270D01*
X156807060Y-114964270D01*
X156716099Y-114872328D01*
X156625138Y-114780385D01*
X156718478Y-114689594D01*
X156811819Y-114598803D01*
X157513074Y-114598803D01*
X158214329Y-114598803D01*
X158304883Y-114690169D01*
G37*
G36*
X156207365Y-114026381D02*
G01*
X156246512Y-114067378D01*
X156276604Y-114101748D01*
X156293064Y-114124133D01*
X156294812Y-114128696D01*
X156285419Y-114144310D01*
X156260319Y-114174033D01*
X156224129Y-114212552D01*
X156206581Y-114230227D01*
X156118350Y-114317674D01*
X155366331Y-114317674D01*
X154614312Y-114317674D01*
X154516686Y-114219293D01*
X154419059Y-114120913D01*
X154509628Y-114029531D01*
X154600198Y-113938150D01*
X155360058Y-113938150D01*
X156119918Y-113938150D01*
X156207365Y-114026381D01*
G37*
G36*
X161186470Y-114029531D02*
G01*
X161277039Y-114120913D01*
X161179412Y-114219293D01*
X161081786Y-114317674D01*
X160336040Y-114317674D01*
X159590294Y-114317674D01*
X159492668Y-114219293D01*
X159395041Y-114120913D01*
X159485611Y-114029531D01*
X159576180Y-113938150D01*
X160336040Y-113938150D01*
X161095900Y-113938150D01*
X161186470Y-114029531D01*
G37*
G36*
X154405400Y-112232684D02*
G01*
X154435826Y-112257986D01*
X154475387Y-112294723D01*
X154499477Y-112318497D01*
X154593981Y-112413731D01*
X154593981Y-113156222D01*
X154593981Y-113898714D01*
X154500308Y-113995742D01*
X154459215Y-114037437D01*
X154425366Y-114070156D01*
X154403440Y-114089464D01*
X154398022Y-114092770D01*
X154385037Y-114083424D01*
X154357207Y-114058310D01*
X154319286Y-114021818D01*
X154294905Y-113997537D01*
X154200401Y-113902303D01*
X154200401Y-113152933D01*
X154200401Y-112403564D01*
X154286968Y-112313413D01*
X154327305Y-112273141D01*
X154361520Y-112242149D01*
X154384293Y-112225123D01*
X154389254Y-112223263D01*
X154405400Y-112232684D01*
G37*
G36*
X156425199Y-112304428D02*
G01*
X156519715Y-112399674D01*
X156519715Y-113151718D01*
X156519715Y-113903762D01*
X156424469Y-113998279D01*
X156329223Y-114092795D01*
X156234707Y-113997549D01*
X156140191Y-113902303D01*
X156140191Y-113150259D01*
X156140191Y-112398215D01*
X156235437Y-112303698D01*
X156330683Y-112209182D01*
X156425199Y-112304428D01*
G37*
G36*
X159461391Y-112304428D02*
G01*
X159555907Y-112399674D01*
X159555907Y-113151718D01*
X159555907Y-113903762D01*
X159460661Y-113998279D01*
X159365415Y-114092795D01*
X159270899Y-113997549D01*
X159176383Y-113902303D01*
X159176383Y-113150259D01*
X159176383Y-112398215D01*
X159271629Y-112303698D01*
X159366875Y-112209182D01*
X159461391Y-112304428D01*
G37*
G36*
X158885077Y-112079525D02*
G01*
X158979593Y-112174771D01*
X158979593Y-113039296D01*
X158979593Y-113903821D01*
X158891362Y-113991267D01*
X158850364Y-114030414D01*
X158815995Y-114060507D01*
X158793609Y-114076967D01*
X158789047Y-114078714D01*
X158773433Y-114069321D01*
X158743710Y-114044221D01*
X158705190Y-114008032D01*
X158687516Y-113990483D01*
X158600069Y-113902252D01*
X158600069Y-113037782D01*
X158600069Y-112173311D01*
X158695315Y-112078795D01*
X158790561Y-111984279D01*
X158885077Y-112079525D01*
G37*
G36*
X156207365Y-112086591D02*
G01*
X156246512Y-112127588D01*
X156276604Y-112161958D01*
X156293064Y-112184343D01*
X156294812Y-112188906D01*
X156285419Y-112204520D01*
X156260319Y-112234243D01*
X156224129Y-112272763D01*
X156206581Y-112290437D01*
X156118350Y-112377884D01*
X155366331Y-112377884D01*
X154614312Y-112377884D01*
X154516686Y-112279503D01*
X154419059Y-112181123D01*
X154509628Y-112089741D01*
X154600198Y-111998360D01*
X155360058Y-111998360D01*
X156119918Y-111998360D01*
X156207365Y-112086591D01*
G37*
G36*
X161186470Y-112089741D02*
G01*
X161277039Y-112181123D01*
X161179412Y-112279503D01*
X161081786Y-112377884D01*
X160336040Y-112377884D01*
X159590294Y-112377884D01*
X159492668Y-112279503D01*
X159395041Y-112181123D01*
X159485611Y-112089741D01*
X159576180Y-111998360D01*
X160336040Y-111998360D01*
X161095900Y-111998360D01*
X161186470Y-112089741D01*
G37*
G36*
X152907638Y-109626680D02*
G01*
X152919597Y-109627773D01*
X153101308Y-109658541D01*
X153278771Y-109715818D01*
X153448699Y-109798017D01*
X153607807Y-109903552D01*
X153751366Y-110029389D01*
X153875663Y-110172046D01*
X153978131Y-110327693D01*
X154057225Y-110493060D01*
X154111400Y-110664878D01*
X154139109Y-110839879D01*
X154139960Y-110851328D01*
X154143389Y-110918425D01*
X154139893Y-110964033D01*
X154125227Y-110992293D01*
X154095145Y-111007347D01*
X154045401Y-111013338D01*
X153972811Y-111014409D01*
X153910454Y-111013472D01*
X153869398Y-111009827D01*
X153842870Y-111002219D01*
X153824097Y-110989396D01*
X153820877Y-110986296D01*
X153798459Y-110947140D01*
X153792764Y-110911234D01*
X153786418Y-110849288D01*
X153768976Y-110770744D01*
X153742836Y-110683664D01*
X153710395Y-110596113D01*
X153677218Y-110522433D01*
X153637343Y-110450181D01*
X153592471Y-110386216D01*
X153535181Y-110320497D01*
X153504833Y-110289150D01*
X153391272Y-110186627D01*
X153274208Y-110106953D01*
X153147484Y-110046972D01*
X153004942Y-110003528D01*
X152909680Y-109984159D01*
X152853955Y-109972972D01*
X152808222Y-109960913D01*
X152780192Y-109950112D01*
X152776288Y-109947336D01*
X152767921Y-109926055D01*
X152760601Y-109884214D01*
X152755540Y-109829366D01*
X152754690Y-109812658D01*
X152752819Y-109754270D01*
X152754204Y-109716410D01*
X152760436Y-109691543D01*
X152773107Y-109672131D01*
X152787580Y-109656832D01*
X152809771Y-109636761D01*
X152831196Y-109626362D01*
X152860827Y-109623660D01*
X152907638Y-109626680D01*
G37*
G36*
X152924415Y-108788018D02*
G01*
X153009676Y-108795521D01*
X153107113Y-108809420D01*
X153211872Y-108828958D01*
X153319097Y-108853376D01*
X153423933Y-108881915D01*
X153482514Y-108900318D01*
X153707465Y-108989528D01*
X153919096Y-109102397D01*
X154115952Y-109237099D01*
X154296580Y-109391808D01*
X154459524Y-109564698D01*
X154603332Y-109753942D01*
X154726548Y-109957713D01*
X154827718Y-110174185D01*
X154905387Y-110401532D01*
X154958102Y-110637927D01*
X154976474Y-110776497D01*
X154983209Y-110848070D01*
X154986361Y-110897595D01*
X154985705Y-110930937D01*
X154981018Y-110953958D01*
X154972079Y-110972522D01*
X154968828Y-110977653D01*
X154956029Y-110994882D01*
X154940855Y-111005667D01*
X154916956Y-111011513D01*
X154877980Y-111013925D01*
X154817576Y-111014408D01*
X154813711Y-111014409D01*
X154748574Y-111013444D01*
X154705535Y-111009913D01*
X154678628Y-111002857D01*
X154661882Y-110991317D01*
X154660474Y-110989810D01*
X154646845Y-110960597D01*
X154634209Y-110905240D01*
X154623001Y-110825702D01*
X154622099Y-110817618D01*
X154584107Y-110586140D01*
X154522242Y-110369242D01*
X154436081Y-110166004D01*
X154325203Y-109975503D01*
X154189186Y-109796817D01*
X154120269Y-109720653D01*
X153952451Y-109563770D01*
X153770601Y-109430529D01*
X153576235Y-109321704D01*
X153370870Y-109238071D01*
X153156019Y-109180407D01*
X153021817Y-109158424D01*
X152940252Y-109148005D01*
X152881853Y-109139789D01*
X152841865Y-109132665D01*
X152815537Y-109125523D01*
X152798117Y-109117255D01*
X152784851Y-109106751D01*
X152779916Y-109101948D01*
X152764892Y-109081162D01*
X152756481Y-109051466D01*
X152753089Y-109005266D01*
X152752779Y-108972710D01*
X152754292Y-108902020D01*
X152759656Y-108854044D01*
X152770580Y-108823464D01*
X152788775Y-108804961D01*
X152809843Y-108795237D01*
X152856186Y-108787671D01*
X152924415Y-108788018D01*
G37*
G36*
X153025262Y-107968792D02*
G01*
X153149356Y-107981936D01*
X153284515Y-108002460D01*
X153423069Y-108029232D01*
X153530232Y-108054146D01*
X153802695Y-108137089D01*
X154064942Y-108245485D01*
X154315352Y-108378020D01*
X154552300Y-108533378D01*
X154774165Y-108710246D01*
X154979323Y-108907307D01*
X155166151Y-109123249D01*
X155333028Y-109356756D01*
X155478330Y-109606514D01*
X155500768Y-109650493D01*
X155586596Y-109842116D01*
X155661012Y-110048594D01*
X155722136Y-110262676D01*
X155768084Y-110477109D01*
X155796974Y-110684642D01*
X155806204Y-110827359D01*
X155806707Y-110902907D01*
X155800434Y-110954861D01*
X155783351Y-110987604D01*
X155751428Y-111005519D01*
X155700631Y-111012990D01*
X155634159Y-111014409D01*
X155572727Y-111013508D01*
X155532667Y-111009951D01*
X155507267Y-111002451D01*
X155489821Y-110989723D01*
X155486386Y-110986097D01*
X155474075Y-110966217D01*
X155464633Y-110934351D01*
X155457090Y-110885524D01*
X155450477Y-110814762D01*
X155448909Y-110793808D01*
X155415733Y-110527950D01*
X155355492Y-110266146D01*
X155269195Y-110011002D01*
X155157852Y-109765120D01*
X155022472Y-109531107D01*
X154884034Y-109336775D01*
X154816343Y-109256409D01*
X154732589Y-109166520D01*
X154638940Y-109072999D01*
X154541560Y-108981736D01*
X154446616Y-108898623D01*
X154360274Y-108829549D01*
X154330062Y-108807546D01*
X154111915Y-108669915D01*
X153878259Y-108551708D01*
X153635777Y-108456016D01*
X153449298Y-108400146D01*
X153351979Y-108377520D01*
X153244836Y-108356742D01*
X153135708Y-108339001D01*
X153032435Y-108325485D01*
X152942856Y-108317383D01*
X152891792Y-108315571D01*
X152842372Y-108312080D01*
X152808673Y-108299014D01*
X152787089Y-108281068D01*
X152769127Y-108259908D01*
X152758713Y-108235808D01*
X152753864Y-108200646D01*
X152752593Y-108146298D01*
X152752587Y-108139865D01*
X152753621Y-108083280D01*
X152758046Y-108046650D01*
X152767848Y-108021851D01*
X152785011Y-108000760D01*
X152787089Y-107998662D01*
X152809446Y-107979974D01*
X152835219Y-107969507D01*
X152873120Y-107964998D01*
X152919905Y-107964160D01*
X153025262Y-107968792D01*
G37*
G36*
X146022321Y-112445738D02*
G01*
X146121156Y-112485612D01*
X146209038Y-112544662D01*
X146283365Y-112619967D01*
X146341536Y-112708607D01*
X146380949Y-112807662D01*
X146399003Y-112914211D01*
X146393095Y-113025335D01*
X146379805Y-113083564D01*
X146335411Y-113189297D01*
X146270087Y-113280520D01*
X146187720Y-113355032D01*
X146092198Y-113410632D01*
X145987408Y-113445119D01*
X145877237Y-113456293D01*
X145765572Y-113441951D01*
X145752817Y-113438568D01*
X145639281Y-113393385D01*
X145543555Y-113326454D01*
X145465737Y-113237858D01*
X145417021Y-113152675D01*
X145398744Y-113109632D01*
X145387596Y-113069678D01*
X145381918Y-113023285D01*
X145380048Y-112960928D01*
X145379980Y-112940142D01*
X145381083Y-112872093D01*
X145385489Y-112822710D01*
X145394843Y-112782591D01*
X145410790Y-112742339D01*
X145416884Y-112729295D01*
X145481483Y-112624753D01*
X145564920Y-112540639D01*
X145665304Y-112478399D01*
X145780740Y-112439476D01*
X145802196Y-112435197D01*
X145915133Y-112427960D01*
X146022321Y-112445738D01*
G37*
D11*
%TO.C,D1*%
X152225000Y-85416137D02*
X152225000Y-81476137D01*
X153940000Y-83446137D02*
X153800000Y-83446137D01*
X144520000Y-83446137D02*
X144660000Y-83446137D01*
X152465000Y-85416137D02*
X152465000Y-81476137D01*
X153800000Y-81476137D02*
X144660000Y-81476137D01*
X153800000Y-85416137D02*
X153800000Y-81476137D01*
X144660000Y-81476137D02*
X144660000Y-85416137D01*
X144660000Y-85416137D02*
X153800000Y-85416137D01*
X152345000Y-85416137D02*
X152345000Y-81476137D01*
%TO.C,D2*%
X143179797Y-92909069D02*
X140089797Y-92909069D01*
X140089967Y-92909069D02*
G75*
G03*
X141635259Y-98459069I1544830J-2560000D01*
G01*
X141634335Y-98459068D02*
G75*
G03*
X143179627Y-92909070I462J2989999D01*
G01*
X144134797Y-95469069D02*
G75*
G03*
X144134797Y-95469069I-2500000J0D01*
G01*
%TO.C,D3*%
X158395000Y-92656137D02*
X155305000Y-92656137D01*
X156849538Y-98206136D02*
G75*
G03*
X158394830Y-92656138I462J2989999D01*
G01*
X155305170Y-92656137D02*
G75*
G03*
X156850462Y-98206137I1544830J-2560000D01*
G01*
X159350000Y-95216137D02*
G75*
G03*
X159350000Y-95216137I-2500000J0D01*
G01*
%TO.C,C2*%
X160610000Y-101260000D02*
G75*
G03*
X160610000Y-101260000I-2620000J0D01*
G01*
%TO.C,C1*%
X143019197Y-101542872D02*
G75*
G03*
X143019197Y-101542872I-2620000J0D01*
G01*
%TO.C,R1*%
X139070000Y-79966137D02*
X139070000Y-80656137D01*
X140790000Y-89896137D02*
X140790000Y-80656137D01*
X140790000Y-80656137D02*
X137350000Y-80656137D01*
X137350000Y-89896137D02*
X140790000Y-89896137D01*
X137350000Y-80656137D02*
X137350000Y-89896137D01*
X139070000Y-90586137D02*
X139070000Y-89896137D01*
%TO.C,R3*%
X153533379Y-88752752D02*
X150093379Y-88752752D01*
X150093379Y-97992752D02*
X153533379Y-97992752D01*
X151813379Y-98682752D02*
X151813379Y-97992752D01*
X153533379Y-97992752D02*
X153533379Y-88752752D01*
X150093379Y-88752752D02*
X150093379Y-97992752D01*
X151813379Y-88062752D02*
X151813379Y-88752752D01*
D12*
%TO.C,Q2*%
X150642307Y-105647112D02*
X154831307Y-105647112D01*
X150081907Y-103996112D02*
X155391707Y-103996112D01*
X154831305Y-105647111D02*
G75*
G03*
X153523106Y-101447712I-2094488J1650989D01*
G01*
X151950507Y-101447612D02*
G75*
G03*
X150081908Y-104250112I786300J-2548480D01*
G01*
X153523107Y-101447613D02*
G75*
G03*
X151950507Y-101447613I-786300J-2548506D01*
G01*
X150081907Y-104250112D02*
G75*
G03*
X150642207Y-105647112I2654900J253950D01*
G01*
%TO.C,Q1*%
X143073044Y-103996112D02*
X148382844Y-103996112D01*
X143633444Y-105647112D02*
X147822444Y-105647112D01*
X146514244Y-101447613D02*
G75*
G03*
X144941644Y-101447613I-786300J-2548506D01*
G01*
X147822442Y-105647111D02*
G75*
G03*
X146514243Y-101447712I-2094488J1650989D01*
G01*
X143073044Y-104250112D02*
G75*
G03*
X143633344Y-105647112I2654900J253950D01*
G01*
X144941644Y-101447612D02*
G75*
G03*
X143073045Y-104250112I786300J-2548480D01*
G01*
D11*
%TO.C,R4*%
X161135002Y-89820072D02*
X161135002Y-80580072D01*
X157695002Y-89820072D02*
X161135002Y-89820072D01*
X161135002Y-80580072D02*
X157695002Y-80580072D01*
X159415002Y-90510072D02*
X159415002Y-89820072D01*
X159415002Y-79890072D02*
X159415002Y-80580072D01*
X157695002Y-80580072D02*
X157695002Y-89820072D01*
%TO.C,R2*%
X146690000Y-98686775D02*
X146690000Y-97996775D01*
X146690000Y-88066775D02*
X146690000Y-88756775D01*
X148410000Y-97996775D02*
X148410000Y-88756775D01*
X144970000Y-88756775D02*
X144970000Y-97996775D01*
X144970000Y-97996775D02*
X148410000Y-97996775D01*
X148410000Y-88756775D02*
X144970000Y-88756775D01*
%TD*%
M02*
