%TF.GenerationSoftware,KiCad,Pcbnew,(7.0.0)*%
%TF.CreationDate,2023-03-16T10:54:00+00:00*%
%TF.ProjectId,kit-soldadura-pcb,6b69742d-736f-46c6-9461-647572612d70,rev?*%
%TF.SameCoordinates,Original*%
%TF.FileFunction,Copper,L2,Bot*%
%TF.FilePolarity,Positive*%
%FSLAX46Y46*%
G04 Gerber Fmt 4.6, Leading zero omitted, Abs format (unit mm)*
G04 Created by KiCad (PCBNEW (7.0.0)) date 2023-03-16 10:54:00*
%MOMM*%
%LPD*%
G01*
G04 APERTURE LIST*
%TA.AperFunction,ComponentPad*%
%ADD10C,2.800000*%
%TD*%
%TA.AperFunction,ComponentPad*%
%ADD11O,2.800000X2.800000*%
%TD*%
%TA.AperFunction,ComponentPad*%
%ADD12C,2.000000*%
%TD*%
%TA.AperFunction,Conductor*%
%ADD13C,1.000000*%
%TD*%
G04 APERTURE END LIST*
D10*
%TO.P,D1,1,K*%
%TO.N,PWR*%
X155580000Y-83446137D03*
D11*
%TO.P,D1,2,A*%
%TO.N,Net-(D1-Pad2)*%
X142879999Y-83446136D03*
%TD*%
D12*
%TO.P,D2,1,K*%
%TO.N,Net-(D2-Pad1)*%
X141684268Y-94199069D03*
%TO.P,D2,2,A*%
%TO.N,PWR*%
X141650931Y-96739069D03*
%TD*%
%TO.P,D3,1,K*%
%TO.N,Net-(D3-Pad1)*%
X156899471Y-93946137D03*
%TO.P,D3,2,A*%
%TO.N,PWR*%
X156866134Y-96486137D03*
%TD*%
%TO.P,C2,1*%
%TO.N,Net-(C2-Pad1)*%
X159268394Y-101260000D03*
%TO.P,C2,2*%
%TO.N,Net-(C2-Pad2)*%
X156744119Y-101260000D03*
%TD*%
%TO.P,J1,1,Pin_1*%
%TO.N,Net-(D1-Pad2)*%
X146690000Y-79586137D03*
%TD*%
%TO.P,C1,1*%
%TO.N,Net-(C1-Pad1)*%
X139120803Y-101542872D03*
%TO.P,C1,2*%
%TO.N,Net-(C1-Pad2)*%
X141645078Y-101542872D03*
%TD*%
%TO.P,R1,1*%
%TO.N,Net-(D2-Pad1)*%
X139070000Y-78926137D03*
%TO.P,R1,2*%
%TO.N,Net-(C1-Pad1)*%
X139070000Y-91626137D03*
%TD*%
%TO.P,R3,1*%
%TO.N,PWR*%
X151813379Y-87022752D03*
%TO.P,R3,2*%
%TO.N,Net-(C2-Pad2)*%
X151813379Y-99722752D03*
%TD*%
%TO.P,Q2,1,B*%
%TO.N,Net-(C1-Pad2)*%
X152706691Y-102224500D03*
%TO.P,Q2,2,C*%
%TO.N,Net-(C2-Pad1)*%
X150974992Y-104001373D03*
%TO.P,Q2,3,E*%
%TO.N,GND*%
X154498622Y-103986316D03*
%TD*%
%TO.P,Q1,1,B*%
%TO.N,Net-(C2-Pad2)*%
X145697828Y-102224500D03*
%TO.P,Q1,2,C*%
%TO.N,Net-(C1-Pad1)*%
X143966129Y-104001373D03*
%TO.P,Q1,3,E*%
%TO.N,GND*%
X147489759Y-103986316D03*
%TD*%
%TO.P,R4,1*%
%TO.N,Net-(D3-Pad1)*%
X159415002Y-78850072D03*
%TO.P,R4,2*%
%TO.N,Net-(C2-Pad1)*%
X159415002Y-91550072D03*
%TD*%
%TO.P,J2,1,Pin_1*%
%TO.N,GND*%
X151770000Y-79586137D03*
%TD*%
%TO.P,R2,1*%
%TO.N,PWR*%
X146690000Y-87026775D03*
%TO.P,R2,2*%
%TO.N,Net-(C1-Pad2)*%
X146690000Y-99726775D03*
%TD*%
D13*
%TO.N,Net-(C1-Pad1)*%
X139096694Y-102546694D02*
X140551373Y-104001373D01*
X140551373Y-104001373D02*
X143966129Y-104001373D01*
X139070000Y-91626137D02*
X139070000Y-101497176D01*
X139070000Y-101497176D02*
X138990693Y-101576483D01*
X139096694Y-101576483D02*
X139096694Y-102546694D01*
%TO.N,Net-(C1-Pad2)*%
X143461175Y-99726775D02*
X146690000Y-99726775D01*
X141645078Y-101542872D02*
X143461175Y-99726775D01*
%TO.N,Net-(C2-Pad2)*%
X156638321Y-101154202D02*
X156622160Y-101154202D01*
X151813379Y-99722752D02*
X155206871Y-99722752D01*
X155206871Y-99722752D02*
X156638321Y-101154202D01*
X149311631Y-102224500D02*
X145697828Y-102224500D01*
X151813379Y-99722752D02*
X149311631Y-102224500D01*
%TO.N,PWR*%
X146690000Y-92220000D02*
X146690000Y-91700000D01*
X150956137Y-96486137D02*
X146690000Y-92220000D01*
X146694023Y-87022752D02*
X146690000Y-87026775D01*
X156866134Y-96486137D02*
X150956137Y-96486137D01*
X151813379Y-87022752D02*
X146694023Y-87022752D01*
X141650931Y-96739069D02*
X142450931Y-96739069D01*
X155389994Y-83446137D02*
X151813379Y-87022752D01*
X146690000Y-91700000D02*
X146690000Y-87026775D01*
X146690000Y-92500000D02*
X146690000Y-91700000D01*
X142450931Y-96739069D02*
X146690000Y-92500000D01*
X155580000Y-83446137D02*
X155389994Y-83446137D01*
%TO.N,Net-(D1-Pad2)*%
X146690000Y-79586137D02*
X146690000Y-79636137D01*
X146690000Y-79636137D02*
X142880000Y-83446137D01*
%TO.N,Net-(D2-Pad1)*%
X139070000Y-86326137D02*
X141684268Y-88940405D01*
X141684268Y-88940405D02*
X141684268Y-94199069D01*
X139070000Y-78926137D02*
X139070000Y-86326137D01*
%TO.N,Net-(D3-Pad1)*%
X159415002Y-78850072D02*
X159415002Y-86301135D01*
X159415002Y-86301135D02*
X156899471Y-88816666D01*
X156899471Y-88816666D02*
X156899471Y-93946137D01*
%TO.N,Net-(C2-Pad1)*%
X159300091Y-100991044D02*
X159170544Y-101120591D01*
X156850000Y-106646137D02*
X159170544Y-104325593D01*
X150974992Y-104001373D02*
X153619756Y-106646137D01*
X159170544Y-104325593D02*
X159170544Y-101120591D01*
X159300091Y-101228303D02*
X159268394Y-101260000D01*
X159300091Y-91269962D02*
X159300091Y-101228303D01*
X153619756Y-106646137D02*
X156850000Y-106646137D01*
%TD*%
%TA.AperFunction,Conductor*%
%TO.N,GND*%
G36*
X154785165Y-100740843D02*
G01*
X154826042Y-100768157D01*
X155196222Y-101138337D01*
X155225339Y-101183821D01*
X155232739Y-101237317D01*
X155230954Y-101260000D01*
X155231342Y-101264930D01*
X155249195Y-101491777D01*
X155249196Y-101491785D01*
X155249584Y-101496711D01*
X155250738Y-101501519D01*
X155250739Y-101501523D01*
X155303858Y-101722781D01*
X155303859Y-101722786D01*
X155305014Y-101727594D01*
X155306907Y-101732164D01*
X155306908Y-101732167D01*
X155387792Y-101927440D01*
X155395879Y-101946963D01*
X155519943Y-102149416D01*
X155523150Y-102153171D01*
X155523153Y-102153175D01*
X155607579Y-102252025D01*
X155674150Y-102329969D01*
X155677905Y-102333176D01*
X155813738Y-102449189D01*
X155854703Y-102484176D01*
X156057156Y-102608240D01*
X156276525Y-102699105D01*
X156507408Y-102754535D01*
X156744119Y-102773165D01*
X156980830Y-102754535D01*
X157211713Y-102699105D01*
X157431082Y-102608240D01*
X157633535Y-102484176D01*
X157814088Y-102329969D01*
X157910448Y-102217145D01*
X157953504Y-102184553D01*
X158006255Y-102172979D01*
X158059007Y-102184553D01*
X158102066Y-102217147D01*
X158104135Y-102219570D01*
X158131855Y-102252025D01*
X158154256Y-102290245D01*
X158162044Y-102333856D01*
X158162044Y-103855669D01*
X158152453Y-103903887D01*
X158125139Y-103944764D01*
X156469171Y-105600732D01*
X156428294Y-105628046D01*
X156380076Y-105637637D01*
X155086020Y-105637637D01*
X155020185Y-105619070D01*
X154973753Y-105568840D01*
X154960408Y-105501751D01*
X154984084Y-105437576D01*
X155037802Y-105395228D01*
X155180784Y-105336002D01*
X155189579Y-105331521D01*
X155360330Y-105226884D01*
X155368436Y-105218935D01*
X155362409Y-105209313D01*
X154228507Y-104075411D01*
X154195895Y-104018927D01*
X154195895Y-103986315D01*
X154862789Y-103986315D01*
X154869561Y-103998045D01*
X155721619Y-104850103D01*
X155731241Y-104856130D01*
X155739190Y-104848024D01*
X155843827Y-104677273D01*
X155848308Y-104668478D01*
X155935355Y-104458328D01*
X155938405Y-104448942D01*
X155991506Y-104227761D01*
X155993050Y-104218015D01*
X156010897Y-103991246D01*
X156010897Y-103981386D01*
X155993050Y-103754616D01*
X155991506Y-103744870D01*
X155938405Y-103523689D01*
X155935355Y-103514303D01*
X155848309Y-103304155D01*
X155843828Y-103295360D01*
X155739187Y-103124602D01*
X155731241Y-103116499D01*
X155721622Y-103122524D01*
X154869560Y-103974587D01*
X154862789Y-103986315D01*
X154195895Y-103986315D01*
X154195895Y-103953705D01*
X154228507Y-103897221D01*
X154498622Y-103627106D01*
X154498621Y-103627106D01*
X155362413Y-102763313D01*
X155368438Y-102753695D01*
X155360334Y-102745749D01*
X155189577Y-102641109D01*
X155180782Y-102636628D01*
X154970634Y-102549582D01*
X154961248Y-102546532D01*
X154740067Y-102493431D01*
X154730321Y-102491887D01*
X154503552Y-102474041D01*
X154493691Y-102474041D01*
X154345459Y-102485706D01*
X154291962Y-102478306D01*
X154246478Y-102449189D01*
X154217362Y-102403704D01*
X154209962Y-102350208D01*
X154211851Y-102326214D01*
X154219856Y-102224500D01*
X154201226Y-101987789D01*
X154145796Y-101756906D01*
X154054931Y-101537537D01*
X153930867Y-101335084D01*
X153906164Y-101306161D01*
X153779867Y-101158286D01*
X153776660Y-101154531D01*
X153757699Y-101138337D01*
X153599866Y-101003534D01*
X153599862Y-101003531D01*
X153596107Y-101000324D01*
X153591887Y-100997738D01*
X153591883Y-100997735D01*
X153537950Y-100964684D01*
X153493370Y-100917953D01*
X153477801Y-100855273D01*
X153495332Y-100793113D01*
X153541357Y-100747804D01*
X153603785Y-100731252D01*
X154736947Y-100731252D01*
X154785165Y-100740843D01*
G37*
%TD.AperFunction*%
%TA.AperFunction,Conductor*%
G36*
X162944152Y-76519995D02*
G01*
X163007141Y-76536896D01*
X163053243Y-76583026D01*
X163070106Y-76646027D01*
X163059941Y-117194008D01*
X163043042Y-117257007D01*
X162996906Y-117303116D01*
X162933896Y-117319976D01*
X135475865Y-117310067D01*
X135412884Y-117293171D01*
X135366783Y-117247054D01*
X135349910Y-117184067D01*
X135349931Y-107658910D01*
X135349966Y-91626137D01*
X137556835Y-91626137D01*
X137557223Y-91631067D01*
X137575076Y-91857914D01*
X137575077Y-91857922D01*
X137575465Y-91862848D01*
X137576619Y-91867656D01*
X137576620Y-91867660D01*
X137629739Y-92088918D01*
X137629740Y-92088923D01*
X137630895Y-92093731D01*
X137632788Y-92098301D01*
X137632789Y-92098304D01*
X137674583Y-92199205D01*
X137721760Y-92313100D01*
X137845824Y-92515553D01*
X137849031Y-92519308D01*
X137849034Y-92519312D01*
X137921324Y-92603952D01*
X138000031Y-92696106D01*
X138003786Y-92699313D01*
X138003788Y-92699315D01*
X138017332Y-92710883D01*
X138049926Y-92753943D01*
X138061500Y-92806693D01*
X138061500Y-100413930D01*
X138053712Y-100457541D01*
X138031311Y-100495760D01*
X137899842Y-100649690D01*
X137899833Y-100649701D01*
X137896627Y-100653456D01*
X137894048Y-100657664D01*
X137894044Y-100657670D01*
X137808579Y-100797136D01*
X137772563Y-100855909D01*
X137770670Y-100860478D01*
X137770668Y-100860483D01*
X137683592Y-101070704D01*
X137683589Y-101070710D01*
X137681698Y-101075278D01*
X137680544Y-101080081D01*
X137680542Y-101080090D01*
X137627423Y-101301348D01*
X137626268Y-101306161D01*
X137625880Y-101311084D01*
X137625879Y-101311094D01*
X137613633Y-101466696D01*
X137607638Y-101542872D01*
X137608026Y-101547802D01*
X137625879Y-101774649D01*
X137625880Y-101774657D01*
X137626268Y-101779583D01*
X137627422Y-101784391D01*
X137627423Y-101784395D01*
X137680542Y-102005653D01*
X137680543Y-102005658D01*
X137681698Y-102010466D01*
X137772563Y-102229835D01*
X137896627Y-102432288D01*
X137899834Y-102436043D01*
X137899837Y-102436047D01*
X138009258Y-102564162D01*
X138050834Y-102612841D01*
X138054589Y-102616048D01*
X138054590Y-102616049D01*
X138054817Y-102616243D01*
X138054946Y-102616405D01*
X138058098Y-102619557D01*
X138057740Y-102619914D01*
X138084689Y-102653752D01*
X138098383Y-102699705D01*
X138102785Y-102744395D01*
X138104580Y-102750314D01*
X138104582Y-102750321D01*
X138113709Y-102780407D01*
X138146433Y-102888280D01*
X138160453Y-102934498D01*
X138254099Y-103109698D01*
X138380126Y-103263262D01*
X138413842Y-103290932D01*
X138422992Y-103299226D01*
X139798835Y-104675069D01*
X139807139Y-104684230D01*
X139834805Y-104717941D01*
X139988369Y-104843968D01*
X140163569Y-104937614D01*
X140207815Y-104951035D01*
X140353672Y-104995282D01*
X140551373Y-105014753D01*
X140557536Y-105014146D01*
X140557537Y-105014146D01*
X140594761Y-105010480D01*
X140607110Y-105009873D01*
X142785573Y-105009873D01*
X142838323Y-105021447D01*
X142881384Y-105054041D01*
X142896160Y-105071342D01*
X142899915Y-105074549D01*
X143057706Y-105209316D01*
X143076713Y-105225549D01*
X143279166Y-105349613D01*
X143498535Y-105440478D01*
X143729418Y-105495908D01*
X143966129Y-105514538D01*
X144202840Y-105495908D01*
X144433723Y-105440478D01*
X144653092Y-105349613D01*
X144855545Y-105225549D01*
X144863289Y-105218935D01*
X146619942Y-105218935D01*
X146628045Y-105226881D01*
X146798803Y-105331522D01*
X146807598Y-105336003D01*
X147017746Y-105423049D01*
X147027132Y-105426099D01*
X147248313Y-105479200D01*
X147258059Y-105480744D01*
X147484829Y-105498591D01*
X147494689Y-105498591D01*
X147721458Y-105480744D01*
X147731204Y-105479200D01*
X147952385Y-105426099D01*
X147961771Y-105423049D01*
X148171921Y-105336002D01*
X148180716Y-105331521D01*
X148351467Y-105226884D01*
X148359573Y-105218935D01*
X148353546Y-105209313D01*
X147501488Y-104357255D01*
X147489758Y-104350483D01*
X147478030Y-104357254D01*
X146625967Y-105209316D01*
X146619942Y-105218935D01*
X144863289Y-105218935D01*
X145036098Y-105071342D01*
X145190305Y-104890789D01*
X145314369Y-104688336D01*
X145405234Y-104468967D01*
X145460664Y-104238084D01*
X145479294Y-104001373D01*
X145468622Y-103865783D01*
X145476022Y-103812291D01*
X145505139Y-103766805D01*
X145550624Y-103737689D01*
X145604121Y-103730290D01*
X145692887Y-103737277D01*
X145692898Y-103737277D01*
X145697828Y-103737665D01*
X145851454Y-103725574D01*
X145904950Y-103732974D01*
X145950435Y-103762090D01*
X145979552Y-103807575D01*
X145986952Y-103861071D01*
X145977484Y-103981385D01*
X145977484Y-103991246D01*
X145995330Y-104218015D01*
X145996874Y-104227761D01*
X146049975Y-104448942D01*
X146053025Y-104458328D01*
X146140071Y-104668476D01*
X146144552Y-104677271D01*
X146249192Y-104848028D01*
X146257138Y-104856131D01*
X146266758Y-104850105D01*
X147400663Y-103716200D01*
X147457147Y-103683588D01*
X147522369Y-103683588D01*
X147578853Y-103716200D01*
X148712756Y-104850103D01*
X148722378Y-104856130D01*
X148730327Y-104848024D01*
X148834964Y-104677273D01*
X148839445Y-104668478D01*
X148926492Y-104458328D01*
X148929542Y-104448942D01*
X148982643Y-104227761D01*
X148984187Y-104218015D01*
X149002034Y-103991246D01*
X149002034Y-103981386D01*
X148984187Y-103754616D01*
X148982643Y-103744870D01*
X148929542Y-103523689D01*
X148926492Y-103514303D01*
X148882137Y-103407218D01*
X148873153Y-103346649D01*
X148893781Y-103288998D01*
X148939150Y-103247878D01*
X148998546Y-103233000D01*
X149255894Y-103233000D01*
X149268243Y-103233607D01*
X149305467Y-103237273D01*
X149305468Y-103237273D01*
X149311631Y-103237880D01*
X149463999Y-103222873D01*
X149527406Y-103233075D01*
X149577550Y-103273207D01*
X149601398Y-103332841D01*
X149592755Y-103396483D01*
X149537783Y-103529200D01*
X149537780Y-103529207D01*
X149535887Y-103533779D01*
X149534733Y-103538582D01*
X149534731Y-103538591D01*
X149481612Y-103759849D01*
X149480457Y-103764662D01*
X149480069Y-103769585D01*
X149480068Y-103769595D01*
X149463935Y-103974587D01*
X149461827Y-104001373D01*
X149462215Y-104006303D01*
X149480068Y-104233150D01*
X149480069Y-104233158D01*
X149480457Y-104238084D01*
X149481611Y-104242892D01*
X149481612Y-104242896D01*
X149534731Y-104464154D01*
X149534732Y-104464159D01*
X149535887Y-104468967D01*
X149626752Y-104688336D01*
X149750816Y-104890789D01*
X149754023Y-104894544D01*
X149754026Y-104894548D01*
X149901813Y-105067584D01*
X149905023Y-105071342D01*
X149908778Y-105074549D01*
X150066569Y-105209316D01*
X150085576Y-105225549D01*
X150288029Y-105349613D01*
X150507398Y-105440478D01*
X150738281Y-105495908D01*
X150974992Y-105514538D01*
X150979922Y-105514150D01*
X150979927Y-105514150D01*
X150990756Y-105513297D01*
X150997668Y-105512753D01*
X151051167Y-105520151D01*
X151096654Y-105549269D01*
X152867218Y-107319833D01*
X152875522Y-107328994D01*
X152903188Y-107362705D01*
X153056752Y-107488732D01*
X153231951Y-107582377D01*
X153231952Y-107582378D01*
X153422055Y-107640046D01*
X153619756Y-107659517D01*
X153625919Y-107658910D01*
X153625920Y-107658910D01*
X153663144Y-107655244D01*
X153675493Y-107654637D01*
X156794263Y-107654637D01*
X156806612Y-107655244D01*
X156843836Y-107658910D01*
X156843837Y-107658910D01*
X156850000Y-107659517D01*
X157047701Y-107640046D01*
X157237804Y-107582378D01*
X157237804Y-107582377D01*
X157413004Y-107488732D01*
X157566568Y-107362705D01*
X157594240Y-107328985D01*
X157602523Y-107319846D01*
X159844253Y-105078116D01*
X159853392Y-105069833D01*
X159887112Y-105042161D01*
X160013139Y-104888597D01*
X160106785Y-104713397D01*
X160151990Y-104564377D01*
X160164453Y-104523294D01*
X160183924Y-104325593D01*
X160179651Y-104282205D01*
X160179044Y-104269856D01*
X160179044Y-102524126D01*
X160190618Y-102471375D01*
X160223214Y-102428315D01*
X160338363Y-102329969D01*
X160492570Y-102149416D01*
X160616634Y-101946963D01*
X160707499Y-101727594D01*
X160762929Y-101496711D01*
X160781559Y-101260000D01*
X160762929Y-101023289D01*
X160707499Y-100792406D01*
X160616634Y-100573037D01*
X160492570Y-100370584D01*
X160489354Y-100366818D01*
X160338780Y-100190518D01*
X160316379Y-100152299D01*
X160308591Y-100108688D01*
X160308591Y-92828771D01*
X160320165Y-92776020D01*
X160352760Y-92732960D01*
X160400308Y-92692350D01*
X160484971Y-92620041D01*
X160639178Y-92439488D01*
X160763242Y-92237035D01*
X160854107Y-92017666D01*
X160909537Y-91786783D01*
X160928167Y-91550072D01*
X160909537Y-91313361D01*
X160854107Y-91082478D01*
X160763242Y-90863109D01*
X160639178Y-90660656D01*
X160484971Y-90480103D01*
X160393479Y-90401961D01*
X160308177Y-90329106D01*
X160308173Y-90329103D01*
X160304418Y-90325896D01*
X160101965Y-90201832D01*
X159932414Y-90131602D01*
X159887169Y-90112861D01*
X159887166Y-90112860D01*
X159882596Y-90110967D01*
X159877788Y-90109812D01*
X159877783Y-90109811D01*
X159656525Y-90056692D01*
X159656521Y-90056691D01*
X159651713Y-90055537D01*
X159646787Y-90055149D01*
X159646779Y-90055148D01*
X159419932Y-90037295D01*
X159415002Y-90036907D01*
X159410072Y-90037295D01*
X159183224Y-90055148D01*
X159183214Y-90055149D01*
X159178291Y-90055537D01*
X159173484Y-90056691D01*
X159173478Y-90056692D01*
X158952220Y-90109811D01*
X158952211Y-90109813D01*
X158947408Y-90110967D01*
X158942840Y-90112858D01*
X158942834Y-90112861D01*
X158732613Y-90199937D01*
X158732608Y-90199939D01*
X158728039Y-90201832D01*
X158723819Y-90204417D01*
X158723819Y-90204418D01*
X158529800Y-90323313D01*
X158529794Y-90323317D01*
X158525586Y-90325896D01*
X158521836Y-90329098D01*
X158521826Y-90329106D01*
X158348788Y-90476895D01*
X158348781Y-90476901D01*
X158345033Y-90480103D01*
X158341831Y-90483851D01*
X158341825Y-90483858D01*
X158194036Y-90656896D01*
X158194028Y-90656906D01*
X158190826Y-90660656D01*
X158188247Y-90664864D01*
X158188243Y-90664870D01*
X158141404Y-90741305D01*
X158094672Y-90785885D01*
X158031992Y-90801454D01*
X157969832Y-90783923D01*
X157924523Y-90737898D01*
X157907971Y-90675470D01*
X157907971Y-89286590D01*
X157917562Y-89238372D01*
X157944876Y-89197495D01*
X158405590Y-88736781D01*
X160088711Y-87053658D01*
X160097850Y-87045375D01*
X160131570Y-87017703D01*
X160257597Y-86864139D01*
X160351243Y-86688939D01*
X160387316Y-86570023D01*
X160408911Y-86498836D01*
X160428382Y-86301135D01*
X160424109Y-86257747D01*
X160423502Y-86245398D01*
X160423502Y-80030628D01*
X160435076Y-79977878D01*
X160467670Y-79934818D01*
X160472790Y-79930444D01*
X160484971Y-79920041D01*
X160639178Y-79739488D01*
X160763242Y-79537035D01*
X160854107Y-79317666D01*
X160909537Y-79086783D01*
X160928167Y-78850072D01*
X160909537Y-78613361D01*
X160854107Y-78382478D01*
X160763242Y-78163109D01*
X160639178Y-77960656D01*
X160484971Y-77780103D01*
X160393479Y-77701961D01*
X160308177Y-77629106D01*
X160308173Y-77629103D01*
X160304418Y-77625896D01*
X160101965Y-77501832D01*
X159932414Y-77431602D01*
X159887169Y-77412861D01*
X159887166Y-77412860D01*
X159882596Y-77410967D01*
X159877788Y-77409812D01*
X159877783Y-77409811D01*
X159656525Y-77356692D01*
X159656521Y-77356691D01*
X159651713Y-77355537D01*
X159646787Y-77355149D01*
X159646779Y-77355148D01*
X159419932Y-77337295D01*
X159415002Y-77336907D01*
X159410072Y-77337295D01*
X159183224Y-77355148D01*
X159183214Y-77355149D01*
X159178291Y-77355537D01*
X159173484Y-77356691D01*
X159173478Y-77356692D01*
X158952220Y-77409811D01*
X158952211Y-77409813D01*
X158947408Y-77410967D01*
X158942840Y-77412858D01*
X158942834Y-77412861D01*
X158732613Y-77499937D01*
X158732608Y-77499939D01*
X158728039Y-77501832D01*
X158723819Y-77504417D01*
X158723819Y-77504418D01*
X158529800Y-77623313D01*
X158529794Y-77623317D01*
X158525586Y-77625896D01*
X158521836Y-77629098D01*
X158521826Y-77629106D01*
X158348788Y-77776895D01*
X158348781Y-77776901D01*
X158345033Y-77780103D01*
X158341831Y-77783851D01*
X158341825Y-77783858D01*
X158194036Y-77956896D01*
X158194028Y-77956906D01*
X158190826Y-77960656D01*
X158188247Y-77964864D01*
X158188243Y-77964870D01*
X158077322Y-78145876D01*
X158066762Y-78163109D01*
X158064869Y-78167678D01*
X158064867Y-78167683D01*
X157977791Y-78377904D01*
X157977788Y-78377910D01*
X157975897Y-78382478D01*
X157974743Y-78387281D01*
X157974741Y-78387290D01*
X157942899Y-78519923D01*
X157920467Y-78613361D01*
X157920079Y-78618284D01*
X157920078Y-78618294D01*
X157911889Y-78722346D01*
X157901837Y-78850072D01*
X157902225Y-78855002D01*
X157920078Y-79081849D01*
X157920079Y-79081857D01*
X157920467Y-79086783D01*
X157921621Y-79091591D01*
X157921622Y-79091595D01*
X157974741Y-79312853D01*
X157974742Y-79312858D01*
X157975897Y-79317666D01*
X157977790Y-79322236D01*
X157977791Y-79322239D01*
X157991128Y-79354437D01*
X158066762Y-79537035D01*
X158190826Y-79739488D01*
X158194033Y-79743243D01*
X158194036Y-79743247D01*
X158257808Y-79817914D01*
X158345033Y-79920041D01*
X158348788Y-79923248D01*
X158348790Y-79923250D01*
X158362334Y-79934818D01*
X158394928Y-79977878D01*
X158406502Y-80030628D01*
X158406502Y-85831211D01*
X158396911Y-85879429D01*
X158369597Y-85920306D01*
X156225772Y-88064129D01*
X156216614Y-88072431D01*
X156191569Y-88092986D01*
X156182903Y-88100098D01*
X156178985Y-88104871D01*
X156178980Y-88104877D01*
X156060802Y-88248877D01*
X156060797Y-88248883D01*
X156056876Y-88253662D01*
X156053958Y-88259120D01*
X156053958Y-88259121D01*
X155970923Y-88414466D01*
X155970922Y-88414468D01*
X155963229Y-88428862D01*
X155963230Y-88428862D01*
X155960460Y-88437993D01*
X155960459Y-88437995D01*
X155907360Y-88613036D01*
X155907358Y-88613041D01*
X155905562Y-88618965D01*
X155904955Y-88625121D01*
X155904954Y-88625130D01*
X155893375Y-88742704D01*
X155886091Y-88816666D01*
X155886698Y-88822829D01*
X155886698Y-88822830D01*
X155890364Y-88860054D01*
X155890971Y-88872403D01*
X155890971Y-92765581D01*
X155879397Y-92818331D01*
X155846803Y-92861391D01*
X155833259Y-92872958D01*
X155833250Y-92872966D01*
X155829502Y-92876168D01*
X155826300Y-92879916D01*
X155826294Y-92879923D01*
X155678505Y-93052961D01*
X155678497Y-93052971D01*
X155675295Y-93056721D01*
X155672716Y-93060929D01*
X155672712Y-93060935D01*
X155553817Y-93254954D01*
X155551231Y-93259174D01*
X155549338Y-93263743D01*
X155549336Y-93263748D01*
X155462260Y-93473969D01*
X155462257Y-93473975D01*
X155460366Y-93478543D01*
X155459212Y-93483346D01*
X155459210Y-93483355D01*
X155406091Y-93704613D01*
X155404936Y-93709426D01*
X155404548Y-93714349D01*
X155404547Y-93714359D01*
X155391879Y-93875328D01*
X155386306Y-93946137D01*
X155386694Y-93951067D01*
X155404547Y-94177914D01*
X155404548Y-94177922D01*
X155404936Y-94182848D01*
X155406090Y-94187656D01*
X155406091Y-94187660D01*
X155459210Y-94408918D01*
X155459211Y-94408923D01*
X155460366Y-94413731D01*
X155551231Y-94633100D01*
X155675295Y-94835553D01*
X155678502Y-94839308D01*
X155678505Y-94839312D01*
X155748696Y-94921495D01*
X155829502Y-95016106D01*
X155833257Y-95019313D01*
X155833263Y-95019319D01*
X155934858Y-95106089D01*
X155967454Y-95149149D01*
X155979028Y-95201900D01*
X155967454Y-95254651D01*
X155934859Y-95297711D01*
X155799920Y-95412960D01*
X155799913Y-95412966D01*
X155796165Y-95416168D01*
X155792963Y-95419916D01*
X155792955Y-95419925D01*
X155781388Y-95433469D01*
X155738328Y-95466063D01*
X155685578Y-95477637D01*
X151426061Y-95477637D01*
X151377843Y-95468046D01*
X151336966Y-95440732D01*
X147735405Y-91839171D01*
X147708091Y-91798294D01*
X147698500Y-91750076D01*
X147698500Y-88207331D01*
X147710074Y-88154581D01*
X147742668Y-88111521D01*
X147747788Y-88107147D01*
X147759969Y-88096744D01*
X147778180Y-88075420D01*
X147821242Y-88042826D01*
X147873992Y-88031252D01*
X150632823Y-88031252D01*
X150685573Y-88042826D01*
X150728634Y-88075420D01*
X150743410Y-88092721D01*
X150747165Y-88095928D01*
X150892333Y-88219914D01*
X150923963Y-88246928D01*
X151126416Y-88370992D01*
X151345785Y-88461857D01*
X151576668Y-88517287D01*
X151813379Y-88535917D01*
X152050090Y-88517287D01*
X152280973Y-88461857D01*
X152500342Y-88370992D01*
X152702795Y-88246928D01*
X152883348Y-88092721D01*
X153037555Y-87912168D01*
X153161619Y-87709715D01*
X153252484Y-87490346D01*
X153307914Y-87259463D01*
X153326544Y-87022752D01*
X153326156Y-87017822D01*
X153326156Y-87017816D01*
X153324759Y-87000074D01*
X153332157Y-86946575D01*
X153361273Y-86901090D01*
X154942533Y-85319830D01*
X154996128Y-85288031D01*
X155058408Y-85285807D01*
X155307698Y-85340037D01*
X155580000Y-85359512D01*
X155852302Y-85340037D01*
X156119060Y-85282007D01*
X156374845Y-85186604D01*
X156614449Y-85055770D01*
X156832994Y-84892169D01*
X157026032Y-84699131D01*
X157189633Y-84480586D01*
X157320467Y-84240982D01*
X157415870Y-83985197D01*
X157473900Y-83718439D01*
X157493375Y-83446137D01*
X157473900Y-83173835D01*
X157415870Y-82907077D01*
X157320467Y-82651292D01*
X157189633Y-82411688D01*
X157026032Y-82193143D01*
X156832994Y-82000105D01*
X156614449Y-81836504D01*
X156374845Y-81705670D01*
X156370639Y-81704101D01*
X156370632Y-81704098D01*
X156123270Y-81611837D01*
X156123266Y-81611836D01*
X156119060Y-81610267D01*
X156114665Y-81609311D01*
X156114662Y-81609310D01*
X155856706Y-81553195D01*
X155856705Y-81553194D01*
X155852302Y-81552237D01*
X155847820Y-81551916D01*
X155847810Y-81551915D01*
X155584488Y-81533083D01*
X155580000Y-81532762D01*
X155575512Y-81533083D01*
X155312189Y-81551915D01*
X155312177Y-81551916D01*
X155307698Y-81552237D01*
X155303296Y-81553194D01*
X155303293Y-81553195D01*
X155045337Y-81609310D01*
X155045330Y-81609311D01*
X155040940Y-81610267D01*
X155036736Y-81611834D01*
X155036729Y-81611837D01*
X154789367Y-81704098D01*
X154789355Y-81704103D01*
X154785155Y-81705670D01*
X154781207Y-81707825D01*
X154781202Y-81707828D01*
X154549510Y-81834342D01*
X154545551Y-81836504D01*
X154541948Y-81839200D01*
X154541942Y-81839205D01*
X154330609Y-81997407D01*
X154330602Y-81997413D01*
X154327006Y-82000105D01*
X154323827Y-82003283D01*
X154323820Y-82003290D01*
X154137153Y-82189957D01*
X154137146Y-82189964D01*
X154133968Y-82193143D01*
X154131276Y-82196739D01*
X154131270Y-82196746D01*
X153973068Y-82408079D01*
X153973063Y-82408085D01*
X153970367Y-82411688D01*
X153968206Y-82415644D01*
X153968205Y-82415647D01*
X153841691Y-82647339D01*
X153841688Y-82647344D01*
X153839533Y-82651292D01*
X153837966Y-82655492D01*
X153837961Y-82655504D01*
X153745700Y-82902866D01*
X153745697Y-82902873D01*
X153744130Y-82907077D01*
X153743174Y-82911467D01*
X153743173Y-82911474D01*
X153706381Y-83080605D01*
X153686100Y-83173835D01*
X153685779Y-83178314D01*
X153685778Y-83178326D01*
X153667377Y-83435608D01*
X153666625Y-83446137D01*
X153666946Y-83450625D01*
X153666946Y-83450626D01*
X153682352Y-83666044D01*
X153674729Y-83719065D01*
X153645768Y-83764127D01*
X151935041Y-85474854D01*
X151889560Y-85503970D01*
X151836066Y-85511371D01*
X151818317Y-85509975D01*
X151818309Y-85509975D01*
X151813379Y-85509587D01*
X151808449Y-85509975D01*
X151581601Y-85527828D01*
X151581591Y-85527829D01*
X151576668Y-85528217D01*
X151571861Y-85529371D01*
X151571855Y-85529372D01*
X151350597Y-85582491D01*
X151350588Y-85582493D01*
X151345785Y-85583647D01*
X151341217Y-85585538D01*
X151341211Y-85585541D01*
X151130990Y-85672617D01*
X151130985Y-85672619D01*
X151126416Y-85674512D01*
X151122196Y-85677097D01*
X151122196Y-85677098D01*
X150928177Y-85795993D01*
X150928171Y-85795997D01*
X150923963Y-85798576D01*
X150920213Y-85801778D01*
X150920203Y-85801786D01*
X150747165Y-85949575D01*
X150747158Y-85949581D01*
X150743410Y-85952783D01*
X150740208Y-85956531D01*
X150740200Y-85956540D01*
X150728633Y-85970084D01*
X150685573Y-86002678D01*
X150632823Y-86014252D01*
X147867120Y-86014252D01*
X147814370Y-86002678D01*
X147771310Y-85970084D01*
X147763178Y-85960563D01*
X147763176Y-85960561D01*
X147759969Y-85956806D01*
X147717233Y-85920306D01*
X147583175Y-85805809D01*
X147583171Y-85805806D01*
X147579416Y-85802599D01*
X147376963Y-85678535D01*
X147157594Y-85587670D01*
X147152786Y-85586515D01*
X147152781Y-85586514D01*
X146931523Y-85533395D01*
X146931519Y-85533394D01*
X146926711Y-85532240D01*
X146921785Y-85531852D01*
X146921777Y-85531851D01*
X146694930Y-85513998D01*
X146690000Y-85513610D01*
X146685070Y-85513998D01*
X146458222Y-85531851D01*
X146458212Y-85531852D01*
X146453289Y-85532240D01*
X146448482Y-85533394D01*
X146448476Y-85533395D01*
X146227218Y-85586514D01*
X146227209Y-85586516D01*
X146222406Y-85587670D01*
X146217838Y-85589561D01*
X146217832Y-85589564D01*
X146007611Y-85676640D01*
X146007606Y-85676642D01*
X146003037Y-85678535D01*
X145998817Y-85681120D01*
X145998817Y-85681121D01*
X145804798Y-85800016D01*
X145804792Y-85800020D01*
X145800584Y-85802599D01*
X145796834Y-85805801D01*
X145796824Y-85805809D01*
X145623786Y-85953598D01*
X145623779Y-85953604D01*
X145620031Y-85956806D01*
X145616829Y-85960554D01*
X145616823Y-85960561D01*
X145469034Y-86133599D01*
X145469026Y-86133609D01*
X145465824Y-86137359D01*
X145463245Y-86141567D01*
X145463241Y-86141573D01*
X145376728Y-86282749D01*
X145341760Y-86339812D01*
X145339867Y-86344381D01*
X145339865Y-86344386D01*
X145252789Y-86554607D01*
X145252786Y-86554613D01*
X145250895Y-86559181D01*
X145249741Y-86563984D01*
X145249739Y-86563993D01*
X145213740Y-86713941D01*
X145195465Y-86790064D01*
X145195077Y-86794987D01*
X145195076Y-86794997D01*
X145186727Y-86901088D01*
X145176835Y-87026775D01*
X145177223Y-87031705D01*
X145195076Y-87258552D01*
X145195077Y-87258560D01*
X145195465Y-87263486D01*
X145196619Y-87268294D01*
X145196620Y-87268298D01*
X145249739Y-87489556D01*
X145249740Y-87489561D01*
X145250895Y-87494369D01*
X145341760Y-87713738D01*
X145465824Y-87916191D01*
X145469031Y-87919946D01*
X145469034Y-87919950D01*
X145613385Y-88088963D01*
X145620031Y-88096744D01*
X145623786Y-88099951D01*
X145623788Y-88099953D01*
X145637332Y-88111521D01*
X145669926Y-88154581D01*
X145681500Y-88207331D01*
X145681500Y-92030076D01*
X145671909Y-92078294D01*
X145644595Y-92119171D01*
X143407563Y-94356201D01*
X143355517Y-94387536D01*
X143294858Y-94390874D01*
X143239687Y-94365440D01*
X143202831Y-94317146D01*
X143192856Y-94257219D01*
X143197045Y-94203998D01*
X143197433Y-94199069D01*
X143178803Y-93962358D01*
X143123373Y-93731475D01*
X143032508Y-93512106D01*
X142908444Y-93309653D01*
X142869237Y-93263748D01*
X142757444Y-93132855D01*
X142754237Y-93129100D01*
X142736936Y-93114323D01*
X142704342Y-93071263D01*
X142692768Y-93018513D01*
X142692768Y-88996139D01*
X142693375Y-88983789D01*
X142697041Y-88946568D01*
X142697648Y-88940405D01*
X142678176Y-88742704D01*
X142620509Y-88552601D01*
X142526863Y-88377401D01*
X142521603Y-88370992D01*
X142400836Y-88223837D01*
X142380723Y-88207331D01*
X142367125Y-88196171D01*
X142357964Y-88187867D01*
X140115405Y-85945308D01*
X140088091Y-85904431D01*
X140078500Y-85856213D01*
X140078500Y-83446137D01*
X140966625Y-83446137D01*
X140966946Y-83450625D01*
X140985778Y-83713947D01*
X140985779Y-83713957D01*
X140986100Y-83718439D01*
X141044130Y-83985197D01*
X141045699Y-83989403D01*
X141045700Y-83989407D01*
X141137961Y-84236769D01*
X141137964Y-84236776D01*
X141139533Y-84240982D01*
X141270367Y-84480586D01*
X141433968Y-84699131D01*
X141627006Y-84892169D01*
X141845551Y-85055770D01*
X142085155Y-85186604D01*
X142340940Y-85282007D01*
X142607698Y-85340037D01*
X142880000Y-85359512D01*
X143152302Y-85340037D01*
X143419060Y-85282007D01*
X143674845Y-85186604D01*
X143914449Y-85055770D01*
X144132994Y-84892169D01*
X144326032Y-84699131D01*
X144489633Y-84480586D01*
X144620467Y-84240982D01*
X144715870Y-83985197D01*
X144773900Y-83718439D01*
X144793375Y-83446137D01*
X144773900Y-83173835D01*
X144753618Y-83080601D01*
X144755842Y-83018323D01*
X144787641Y-82964728D01*
X146617046Y-81135323D01*
X146653387Y-81109995D01*
X146696246Y-81098810D01*
X146926711Y-81080672D01*
X147157594Y-81025242D01*
X147376963Y-80934377D01*
X147565638Y-80818756D01*
X150900183Y-80818756D01*
X150908286Y-80826702D01*
X151079044Y-80931343D01*
X151087839Y-80935824D01*
X151297987Y-81022870D01*
X151307373Y-81025920D01*
X151528554Y-81079021D01*
X151538300Y-81080565D01*
X151765070Y-81098412D01*
X151774930Y-81098412D01*
X152001699Y-81080565D01*
X152011445Y-81079021D01*
X152232626Y-81025920D01*
X152242012Y-81022870D01*
X152452162Y-80935823D01*
X152460957Y-80931342D01*
X152631708Y-80826705D01*
X152639814Y-80818756D01*
X152633787Y-80809134D01*
X151781729Y-79957076D01*
X151769999Y-79950304D01*
X151758271Y-79957075D01*
X150906208Y-80809137D01*
X150900183Y-80818756D01*
X147565638Y-80818756D01*
X147579416Y-80810313D01*
X147759969Y-80656106D01*
X147914176Y-80475553D01*
X148038240Y-80273100D01*
X148129105Y-80053731D01*
X148184535Y-79822848D01*
X148202777Y-79591067D01*
X150257725Y-79591067D01*
X150275571Y-79817836D01*
X150277115Y-79827582D01*
X150330216Y-80048763D01*
X150333266Y-80058149D01*
X150420312Y-80268297D01*
X150424793Y-80277092D01*
X150529433Y-80447849D01*
X150537379Y-80455953D01*
X150546997Y-80449928D01*
X151399059Y-79597867D01*
X151405832Y-79586136D01*
X152134167Y-79586136D01*
X152140939Y-79597866D01*
X152992997Y-80449924D01*
X153002619Y-80455951D01*
X153010568Y-80447845D01*
X153115205Y-80277094D01*
X153119686Y-80268299D01*
X153206733Y-80058149D01*
X153209783Y-80048763D01*
X153262884Y-79827582D01*
X153264428Y-79817836D01*
X153282275Y-79591067D01*
X153282275Y-79581207D01*
X153264428Y-79354437D01*
X153262884Y-79344691D01*
X153209783Y-79123510D01*
X153206733Y-79114124D01*
X153119687Y-78903976D01*
X153115206Y-78895181D01*
X153010565Y-78724423D01*
X153002619Y-78716320D01*
X152993000Y-78722345D01*
X152140938Y-79574408D01*
X152134167Y-79586136D01*
X151405832Y-79586136D01*
X151399060Y-79574407D01*
X150546999Y-78722346D01*
X150537378Y-78716320D01*
X150529433Y-78724422D01*
X150424793Y-78895181D01*
X150420312Y-78903976D01*
X150333266Y-79114124D01*
X150330216Y-79123510D01*
X150277115Y-79344691D01*
X150275571Y-79354437D01*
X150257725Y-79581207D01*
X150257725Y-79591067D01*
X148202777Y-79591067D01*
X148203165Y-79586137D01*
X148184535Y-79349426D01*
X148129105Y-79118543D01*
X148038240Y-78899174D01*
X147914176Y-78696721D01*
X147907945Y-78689426D01*
X147763176Y-78519923D01*
X147759969Y-78516168D01*
X147692499Y-78458543D01*
X147583175Y-78365171D01*
X147583171Y-78365168D01*
X147579416Y-78361961D01*
X147565633Y-78353515D01*
X150900183Y-78353515D01*
X150906209Y-78363136D01*
X151758270Y-79215197D01*
X151769999Y-79221969D01*
X151781730Y-79215196D01*
X152633791Y-78363134D01*
X152639816Y-78353516D01*
X152631712Y-78345570D01*
X152460955Y-78240930D01*
X152452160Y-78236449D01*
X152242012Y-78149403D01*
X152232626Y-78146353D01*
X152011445Y-78093252D01*
X152001699Y-78091708D01*
X151774930Y-78073862D01*
X151765070Y-78073862D01*
X151538300Y-78091708D01*
X151528554Y-78093252D01*
X151307373Y-78146353D01*
X151297987Y-78149403D01*
X151087839Y-78236449D01*
X151079044Y-78240930D01*
X150908285Y-78345570D01*
X150900183Y-78353515D01*
X147565633Y-78353515D01*
X147376963Y-78237897D01*
X147357440Y-78229810D01*
X147162167Y-78148926D01*
X147162164Y-78148925D01*
X147157594Y-78147032D01*
X147152786Y-78145877D01*
X147152781Y-78145876D01*
X146931523Y-78092757D01*
X146931519Y-78092756D01*
X146926711Y-78091602D01*
X146921785Y-78091214D01*
X146921777Y-78091213D01*
X146694930Y-78073360D01*
X146690000Y-78072972D01*
X146685070Y-78073360D01*
X146458222Y-78091213D01*
X146458212Y-78091214D01*
X146453289Y-78091602D01*
X146448482Y-78092756D01*
X146448476Y-78092757D01*
X146227218Y-78145876D01*
X146227209Y-78145878D01*
X146222406Y-78147032D01*
X146217838Y-78148923D01*
X146217832Y-78148926D01*
X146007611Y-78236002D01*
X146007606Y-78236004D01*
X146003037Y-78237897D01*
X145998817Y-78240482D01*
X145998817Y-78240483D01*
X145804798Y-78359378D01*
X145804792Y-78359382D01*
X145800584Y-78361961D01*
X145796834Y-78365163D01*
X145796824Y-78365171D01*
X145623786Y-78512960D01*
X145623779Y-78512966D01*
X145620031Y-78516168D01*
X145616829Y-78519916D01*
X145616823Y-78519923D01*
X145469034Y-78692961D01*
X145469026Y-78692971D01*
X145465824Y-78696721D01*
X145463245Y-78700929D01*
X145463241Y-78700935D01*
X145448848Y-78724423D01*
X145341760Y-78899174D01*
X145339867Y-78903743D01*
X145339865Y-78903748D01*
X145252789Y-79113969D01*
X145252786Y-79113975D01*
X145250895Y-79118543D01*
X145249741Y-79123346D01*
X145249739Y-79123355D01*
X145196620Y-79344613D01*
X145195465Y-79349426D01*
X145195077Y-79354349D01*
X145195076Y-79354359D01*
X145180367Y-79541254D01*
X145176835Y-79586137D01*
X145177223Y-79591067D01*
X145177223Y-79591069D01*
X145182267Y-79655172D01*
X145174867Y-79708668D01*
X145145750Y-79754151D01*
X143361410Y-81538491D01*
X143307814Y-81570292D01*
X143245533Y-81572517D01*
X143156699Y-81553193D01*
X143156692Y-81553192D01*
X143152302Y-81552237D01*
X142880000Y-81532762D01*
X142875512Y-81533083D01*
X142612189Y-81551915D01*
X142612177Y-81551916D01*
X142607698Y-81552237D01*
X142603296Y-81553194D01*
X142603293Y-81553195D01*
X142345337Y-81609310D01*
X142345330Y-81609311D01*
X142340940Y-81610267D01*
X142336736Y-81611834D01*
X142336729Y-81611837D01*
X142089367Y-81704098D01*
X142089355Y-81704103D01*
X142085155Y-81705670D01*
X142081207Y-81707825D01*
X142081202Y-81707828D01*
X141849510Y-81834342D01*
X141845551Y-81836504D01*
X141841948Y-81839200D01*
X141841942Y-81839205D01*
X141630609Y-81997407D01*
X141630602Y-81997413D01*
X141627006Y-82000105D01*
X141623827Y-82003283D01*
X141623820Y-82003290D01*
X141437153Y-82189957D01*
X141437146Y-82189964D01*
X141433968Y-82193143D01*
X141431276Y-82196739D01*
X141431270Y-82196746D01*
X141273068Y-82408079D01*
X141273063Y-82408085D01*
X141270367Y-82411688D01*
X141268206Y-82415644D01*
X141268205Y-82415647D01*
X141141691Y-82647339D01*
X141141688Y-82647344D01*
X141139533Y-82651292D01*
X141137966Y-82655492D01*
X141137961Y-82655504D01*
X141045700Y-82902866D01*
X141045697Y-82902873D01*
X141044130Y-82907077D01*
X141043174Y-82911467D01*
X141043173Y-82911474D01*
X141006381Y-83080605D01*
X140986100Y-83173835D01*
X140985779Y-83178314D01*
X140985778Y-83178326D01*
X140967377Y-83435608D01*
X140966625Y-83446137D01*
X140078500Y-83446137D01*
X140078500Y-80106693D01*
X140090074Y-80053943D01*
X140122668Y-80010883D01*
X140127788Y-80006509D01*
X140139969Y-79996106D01*
X140294176Y-79815553D01*
X140418240Y-79613100D01*
X140509105Y-79393731D01*
X140564535Y-79162848D01*
X140583165Y-78926137D01*
X140564535Y-78689426D01*
X140509105Y-78458543D01*
X140418240Y-78239174D01*
X140294176Y-78036721D01*
X140232809Y-77964870D01*
X140143176Y-77859923D01*
X140139969Y-77856168D01*
X140055305Y-77783858D01*
X139963175Y-77705171D01*
X139963171Y-77705168D01*
X139959416Y-77701961D01*
X139756963Y-77577897D01*
X139537594Y-77487032D01*
X139532786Y-77485877D01*
X139532781Y-77485876D01*
X139311523Y-77432757D01*
X139311519Y-77432756D01*
X139306711Y-77431602D01*
X139301785Y-77431214D01*
X139301777Y-77431213D01*
X139074930Y-77413360D01*
X139070000Y-77412972D01*
X139065070Y-77413360D01*
X138838222Y-77431213D01*
X138838212Y-77431214D01*
X138833289Y-77431602D01*
X138828482Y-77432756D01*
X138828476Y-77432757D01*
X138607218Y-77485876D01*
X138607209Y-77485878D01*
X138602406Y-77487032D01*
X138597838Y-77488923D01*
X138597832Y-77488926D01*
X138387611Y-77576002D01*
X138387606Y-77576004D01*
X138383037Y-77577897D01*
X138378817Y-77580482D01*
X138378817Y-77580483D01*
X138184798Y-77699378D01*
X138184792Y-77699382D01*
X138180584Y-77701961D01*
X138176834Y-77705163D01*
X138176824Y-77705171D01*
X138003786Y-77852960D01*
X138003779Y-77852966D01*
X138000031Y-77856168D01*
X137996829Y-77859916D01*
X137996823Y-77859923D01*
X137849034Y-78032961D01*
X137849026Y-78032971D01*
X137845824Y-78036721D01*
X137843245Y-78040929D01*
X137843241Y-78040935D01*
X137778933Y-78145876D01*
X137721760Y-78239174D01*
X137719867Y-78243743D01*
X137719865Y-78243748D01*
X137632789Y-78453969D01*
X137632786Y-78453975D01*
X137630895Y-78458543D01*
X137629741Y-78463346D01*
X137629739Y-78463355D01*
X137592542Y-78618294D01*
X137575465Y-78689426D01*
X137575077Y-78694349D01*
X137575076Y-78694359D01*
X137559289Y-78894954D01*
X137556835Y-78926137D01*
X137557223Y-78931067D01*
X137575076Y-79157914D01*
X137575077Y-79157922D01*
X137575465Y-79162848D01*
X137576619Y-79167656D01*
X137576620Y-79167660D01*
X137629739Y-79388918D01*
X137629740Y-79388923D01*
X137630895Y-79393731D01*
X137721760Y-79613100D01*
X137845824Y-79815553D01*
X137849031Y-79819308D01*
X137849034Y-79819312D01*
X137984463Y-79977878D01*
X138000031Y-79996106D01*
X138003786Y-79999313D01*
X138003788Y-79999315D01*
X138017332Y-80010883D01*
X138049926Y-80053943D01*
X138061500Y-80106693D01*
X138061500Y-86270400D01*
X138060893Y-86282749D01*
X138056620Y-86326137D01*
X138076091Y-86523838D01*
X138077887Y-86529759D01*
X138077888Y-86529763D01*
X138109797Y-86634949D01*
X138109797Y-86634950D01*
X138131961Y-86708016D01*
X138131963Y-86708022D01*
X138133759Y-86713941D01*
X138227405Y-86889141D01*
X138353432Y-87042705D01*
X138387148Y-87070375D01*
X138396298Y-87078669D01*
X140638863Y-89321234D01*
X140666177Y-89362111D01*
X140675768Y-89410329D01*
X140675768Y-90927457D01*
X140657201Y-90993292D01*
X140606971Y-91039724D01*
X140539882Y-91053069D01*
X140475707Y-91029393D01*
X140433359Y-90975675D01*
X140418240Y-90939174D01*
X140294176Y-90736721D01*
X140232809Y-90664870D01*
X140143176Y-90559923D01*
X140139969Y-90556168D01*
X140055305Y-90483858D01*
X139963175Y-90405171D01*
X139963171Y-90405168D01*
X139959416Y-90401961D01*
X139756963Y-90277897D01*
X139537594Y-90187032D01*
X139532786Y-90185877D01*
X139532781Y-90185876D01*
X139311523Y-90132757D01*
X139311519Y-90132756D01*
X139306711Y-90131602D01*
X139301785Y-90131214D01*
X139301777Y-90131213D01*
X139074930Y-90113360D01*
X139070000Y-90112972D01*
X139065070Y-90113360D01*
X138838222Y-90131213D01*
X138838212Y-90131214D01*
X138833289Y-90131602D01*
X138828482Y-90132756D01*
X138828476Y-90132757D01*
X138607218Y-90185876D01*
X138607209Y-90185878D01*
X138602406Y-90187032D01*
X138597838Y-90188923D01*
X138597832Y-90188926D01*
X138387611Y-90276002D01*
X138387606Y-90276004D01*
X138383037Y-90277897D01*
X138378817Y-90280482D01*
X138378817Y-90280483D01*
X138184798Y-90399378D01*
X138184792Y-90399382D01*
X138180584Y-90401961D01*
X138176834Y-90405163D01*
X138176824Y-90405171D01*
X138003786Y-90552960D01*
X138003779Y-90552966D01*
X138000031Y-90556168D01*
X137996829Y-90559916D01*
X137996823Y-90559923D01*
X137849034Y-90732961D01*
X137849026Y-90732971D01*
X137845824Y-90736721D01*
X137843245Y-90740929D01*
X137843241Y-90740935D01*
X137816898Y-90783923D01*
X137721760Y-90939174D01*
X137719867Y-90943743D01*
X137719865Y-90943748D01*
X137632789Y-91153969D01*
X137632786Y-91153975D01*
X137630895Y-91158543D01*
X137629741Y-91163346D01*
X137629739Y-91163355D01*
X137592542Y-91318294D01*
X137575465Y-91389426D01*
X137575077Y-91394349D01*
X137575076Y-91394359D01*
X137557223Y-91621207D01*
X137556835Y-91626137D01*
X135349966Y-91626137D01*
X135349999Y-76901545D01*
X135350040Y-76898423D01*
X135356776Y-76639360D01*
X135374722Y-76577755D01*
X135420681Y-76532976D01*
X135482733Y-76516637D01*
X153637654Y-76516637D01*
X162944152Y-76519995D01*
G37*
%TD.AperFunction*%
%TD*%
M02*
